<?xml version="1.0" encoding="UTF-8" standalone="no"?>
<!-- Generator: Adobe Illustrator 12.0.0, SVG Export Plug-In . SVG Version: 6.00 Build 51448)  -->
<svg
   xmlns:dc="http://purl.org/dc/elements/1.1/"
   xmlns:cc="http://creativecommons.org/ns#"
   xmlns:rdf="http://www.w3.org/1999/02/22-rdf-syntax-ns#"
   xmlns:svg="http://www.w3.org/2000/svg"
   xmlns="http://www.w3.org/2000/svg"
   xmlns:sodipodi="http://sodipodi.sourceforge.net/DTD/sodipodi-0.dtd"
   xmlns:inkscape="http://www.inkscape.org/namespaces/inkscape"
   height="138.398"
   id="Layer_1"
   inkscape:version="0.46"
   sodipodi:docbase="F:\openclip\svg da inviare"
   sodipodi:docname="package.svg"
   sodipodi:version="0.32"
   space="preserve"
   style="overflow:visible;enable-background:new 0 0 122.365 138.398;"
   version="1.1"
   viewBox="0 0 122.365 138.398"
   width="122.365"
   inkscape:output_extension="org.inkscape.output.svg.inkscape">
  <metadata
     id="metadata3">
    <rdf:RDF>
      <cc:Work
         rdf:about="">
        <dc:title>Cubo giallo</dc:title>
        <dc:description />
        <dc:subject>
          <rdf:Bag>
            <rdf:li>unsorted</rdf:li>
          </rdf:Bag>
        </dc:subject>
        <dc:publisher>
          <cc:Agent
             rdf:about="http://www.openclipart.org/">
            <dc:title>Open Clip Art Library</dc:title>
          </cc:Agent>
        </dc:publisher>
        <dc:creator>
          <cc:Agent>
            <dc:title>Architetto Francesco Rollandin</dc:title>
          </cc:Agent>
        </dc:creator>
        <dc:rights>
          <cc:Agent>
            <dc:title>Architetto Francesco Rollandin</dc:title>
          </cc:Agent>
        </dc:rights>
        <dc:date />
        <dc:format>image/svg+xml</dc:format>
        <dc:type
           rdf:resource="http://purl.org/dc/dcmitype/StillImage" />
        <cc:license
           rdf:resource="http://web.resource.org/cc/PublicDomain" />
        <dc:language>en</dc:language>
      </cc:Work>
      <cc:License
         rdf:about="http://web.resource.org/cc/PublicDomain">
        <cc:permits
           rdf:resource="http://web.resource.org/cc/Reproduction" />
        <cc:permits
           rdf:resource="http://web.resource.org/cc/Distribution" />
        <cc:permits
           rdf:resource="http://web.resource.org/cc/DerivativeWorks" />
      </cc:License>
    </rdf:RDF>
  </metadata>
  <defs
     id="defs29">
    <inkscape:perspective
       sodipodi:type="inkscape:persp3d"
       inkscape:vp_x="0 : 69.198997 : 1"
       inkscape:vp_y="0 : 1000 : 0"
       inkscape:vp_z="122.365 : 69.198997 : 1"
       inkscape:persp3d-origin="61.182499 : 46.132665 : 1"
       id="perspective20" />
  </defs>
  <sodipodi:namedview
     bordercolor="#666666"
     borderopacity="1.0"
     id="base"
     inkscape:current-layer="Layer_1"
     inkscape:cx="61.182499"
     inkscape:cy="69.198997"
     inkscape:pageopacity="0.0"
     inkscape:pageshadow="2"
     inkscape:window-height="713"
     inkscape:window-width="787"
     inkscape:window-x="110"
     inkscape:window-y="145"
     inkscape:zoom="2.6011938"
     pagecolor="#ffffff"
     showgrid="false" />
  <g
     id="g3">
    <radialGradient
       cx="59.188"
       cy="60.7056"
       gradientUnits="userSpaceOnUse"
       id="XMLID_2_"
       r="67.0258">
      <stop
         id="stop6"
         offset="0.0056"
         style="stop-color:#FFCE00" />
      <stop
         id="stop8"
         offset="0.3793"
         style="stop-color:#FDCB00" />
      <stop
         id="stop10"
         offset="0.6104"
         style="stop-color:#F7C300" />
      <stop
         id="stop12"
         offset="0.8027"
         style="stop-color:#ECB400" />
      <stop
         id="stop14"
         offset="0.9728"
         style="stop-color:#DCA000" />
      <stop
         id="stop16"
         offset="1"
         style="stop-color:#D99C00" />
    </radialGradient>
    <path
       d="M117.805,32.523c-14.551-8.589-29.101-17.176-43.649-25.765   C68.371,3.344,61.92-1.727,54.979,2.37c-6.19,3.653-12.377,7.306-18.565,10.959c-8.861,5.229-17.722,10.459-26.583,15.689   c-5.715,3.375-6.988,3.888-7.702,10.922c-1.487,14.64-1.21,29.54-1.147,44.234c0.023,5.138-1.715,16.087,1.055,19.988   c1.12,1.797,3.9,2.938,5.652,3.973c15.531,9.167,31.059,18.333,46.59,27.5c6.514,3.844,11.848,0.764,17.45-2.544   c8.681-5.121,17.359-10.245,26.04-15.368c6.466-3.816,12.935-7.634,19.401-11.45c4.833-2.853,3.821-7.67,3.942-12.445   c0.274-10.789,0.396-21.589,0.167-32.381c-0.186-8.677,0.361-18.91-2.61-27.218C118.457,33.635,118.203,33.022,117.805,32.523"
       id="path18"
       style="fill:url(#XMLID_2_);" />
    <path
       d="M54.705,1.589c-16.677,9.843-33.353,19.686-50.03,29.529c-4.813,2.841-3.761,13.247-3.998,17.944   c-0.364,7.238-1.634,55.545,0.67,55.529c2.89,4.651,12.027,7.844,16.461,10.46c9.181,5.419,18.362,10.84,27.543,16.259   c6.351,3.749,13.996,10.031,21.642,5.52c5.66-2.693,11.017-6.503,16.409-9.686c9.02-5.323,18.037-10.645,27.056-15.968   c2.591-1.53,11.068-5.215,11.213-9.036c0.711-18.771,1.248-37.804-0.35-56.537c-0.287-3.347-0.071-11.99-3.519-14.025   c-6.069-3.583-12.138-7.164-18.208-10.747C91.26,15.912,82.923,10.99,74.585,6.069C68.601,2.538,61.885-2.647,54.705,1.589    M1.771,78.288c0-13.584-0.413-27.597,1.487-41.096c0.7-4.974,3.583-5.467,7.801-7.958c14.812-8.743,29.623-17.485,44.434-26.227   c6.964-4.111,14.428,2.191,20.191,5.595C84.945,14.067,94.208,19.535,103.468,25c4.087,2.415,13.354,5.487,14.765,10.514   c2.024,7.227,1.919,15.296,2.14,22.733c0.318,10.746,0.246,21.506,0.016,32.252c-0.124,5.729,0.734,10.228-3.087,14.564   c-0.787,0.893-2.054,1.401-3.067,2c-6.226,3.674-12.452,7.35-18.678,11.024c-7.232,4.271-14.466,8.539-21.698,12.809   c-5.104,3.012-10.399,7.379-16.727,5.26c-4.172-1.399-8.152-4.587-11.895-6.796c-7.782-4.596-15.563-9.188-23.346-13.782   c-5.464-3.225-10.928-6.449-16.392-9.674c-1.304-0.77-2.229-1.953-3.503-2.707C1.857,94.896,1.771,86.592,1.771,78.288"
       id="path20"
       style="fill:#C68526;" />
    <path
       d="M74.842,64.921c13.288-5.6,25.354-13.571,38.141-20.149c0.397-0.204,6.249-2.83,4.29-0.863   c-2.998,3.01-7.123,5.197-10.639,7.523c-10.844,7.182-22.606,14.229-31.607,23.742c-7.36,7.779-7.103,21.195-8.02,31.216   c-0.393,4.275-0.474,8.909-1.785,13.032c-1.088,3.418-2.731,1.063-3.253-1.203c-2.533-11.015-1.646-22.539-5.128-33.423   c-4.266-13.329-20.451-22.067-31.55-29.219c-4.916-3.169-9.975-6.121-14.849-9.353c-0.752-0.498-5.65-4.272-1.948-3.043   c9.219,3.062,17.894,8.861,26.585,13.131c6.544,3.213,13.166,6.292,19.96,8.945C62.4,68.131,67.492,68.023,74.842,64.921"
       id="path22"
       style="fill:#FFF61A;" />
    <path
       d="M117.072,34.281c0-1.327-7.271-4.915-8.235-5.521c-6.197-3.892-12.468-7.669-18.779-11.369   c-6.73-3.947-13.512-7.824-20.433-11.427c-3.207-1.669-7.182-5.015-10.842-3.52c-10.403,4.247-20.191,10.642-29.834,16.34   c-5.233,3.091-10.443,6.222-15.607,9.428c-0.842,0.523-7.361,3.706-7.361,4.851c0-1.506,19.243-10.047,21.025-11.007   C37.25,16.54,47.43,10.731,57.995,5.837c3.967-1.839,5.859,0.213,9.725,2.236c7.026,3.679,14.005,7.455,20.98,11.234   c6.554,3.547,13.095,7.119,19.67,10.628C108.995,30.27,117.072,33.877,117.072,34.281"
       id="path24"
       style="fill:#FFE600;" />
    <path
       d="M4.764,104.271c0,1.326,7.271,4.914,8.235,5.521c6.198,3.892,12.468,7.669,18.779,11.368   c6.731,3.946,13.513,7.824,20.434,11.427c3.206,1.67,7.181,5.015,10.84,3.52c10.404-4.247,20.192-10.642,29.836-16.339   c5.232-3.093,10.442-6.224,15.606-9.429c0.842-0.523,7.361-3.706,7.361-4.852c0,1.506-19.243,10.048-21.024,11.008   c-10.246,5.518-20.426,11.326-30.99,16.221c-3.968,1.839-5.859-0.214-9.724-2.236c-7.027-3.68-14.005-7.454-20.982-11.233   c-6.553-3.548-13.094-7.119-19.669-10.63C12.841,108.283,4.764,104.675,4.764,104.271"
       id="path26"
       style="fill:#FFB600;" />
  </g>
</svg>
