<?xml version="1.0" encoding="UTF-8" standalone="no"?>
<!-- Created with Inkscape (http://www.inkscape.org/) -->
<svg
   xmlns:dc="http://purl.org/dc/elements/1.1/"
   xmlns:cc="http://creativecommons.org/ns#"
   xmlns:rdf="http://www.w3.org/1999/02/22-rdf-syntax-ns#"
   xmlns:svg="http://www.w3.org/2000/svg"
   xmlns="http://www.w3.org/2000/svg"
   xmlns:sodipodi="http://sodipodi.sourceforge.net/DTD/sodipodi-0.dtd"
   xmlns:inkscape="http://www.inkscape.org/namespaces/inkscape"
   width="744.09448819"
   height="1052.3622047"
   id="svg2"
   inkscape:label="Pozadie"
   sodipodi:version="0.32"
   inkscape:version="0.46"
   sodipodi:docname="param.svg"
   inkscape:output_extension="org.inkscape.output.svg.inkscape">
  <defs
     id="defs3822">
    <inkscape:perspective
       sodipodi:type="inkscape:persp3d"
       inkscape:vp_x="0 : 526.18109 : 1"
       inkscape:vp_y="0 : 1000 : 0"
       inkscape:vp_z="744.09448 : 526.18109 : 1"
       inkscape:persp3d-origin="372.04724 : 350.78739 : 1"
       id="perspective3828" />
  </defs>
  <sodipodi:namedview
     id="base"
     pagecolor="#ffffff"
     bordercolor="#666666"
     borderopacity="1.0"
     inkscape:pageopacity="0.0"
     inkscape:pageshadow="2"
     inkscape:zoom="1"
     inkscape:cx="175.19476"
     inkscape:cy="781.79142"
     inkscape:document-units="px"
     inkscape:current-layer="g4612"
     showgrid="false"
     inkscape:window-width="1091"
     inkscape:window-height="771"
     inkscape:window-x="107"
     inkscape:window-y="12" />
  <metadata
     id="metadata3825">
    <rdf:RDF>
      <cc:Work
         rdf:about="">
        <dc:format>image/svg+xml</dc:format>
        <dc:type
           rdf:resource="http://purl.org/dc/dcmitype/StillImage" />
      </cc:Work>
    </rdf:RDF>
  </metadata>
  <g
     inkscape:label="Vrstva 1"
     inkscape:groupmode="layer"
     id="layer1">
    <g
       id="g4586"
       transform="matrix(1.2413707,0,0,1.8102596,-37.067642,-225.96975)">
      <g
         id="g4612"
         transform="matrix(1.2992935,0,0,1.2992935,-41.01874,-72.236749)">
        <path
           style="font-size:45.06771850999999884px;font-style:normal;font-variant:normal;font-weight:normal;font-stretch:normal;text-align:start;line-height:100%;writing-mode:lr-tb;text-anchor:start;fill:#ff0000;fill-opacity:1;stroke:none;stroke-width:1px;stroke-linecap:butt;stroke-linejoin:miter;stroke-opacity:1;font-family:Bitstream Vera Sans;-inkscape-font-specification:Bitstream Vera Sans"
           d="M 172.00587,261.86686 L 163.11556,249.82973 L 171.45573,249.82973 L 176.49504,257.13563 L 181.60037,249.82973 L 189.94054,249.82973 L 181.05023,261.82285 L 190.38065,274.47614 L 182.04048,274.47614 L 176.49504,266.68611 L 171.01562,274.47614 L 162.67545,274.47614 L 172.00587,261.86686"
           id="text3830" />
        <path
           transform="scale(0.9683718,1.0326612)"
           style="font-size:43.64230728px;font-style:normal;font-variant:normal;font-weight:normal;font-stretch:normal;text-align:start;line-height:100%;writing-mode:lr-tb;text-anchor:start;fill:#0055d4;fill-opacity:1;stroke:none;stroke-width:1px;stroke-linecap:butt;stroke-linejoin:miter;stroke-opacity:1;font-family:Bitstream Vera Sans;-inkscape-font-specification:Bitstream Vera Sans"
           d="M 161.68716,269.2045 L 161.68716,273.99919 L 157.06295,273.99919 C 153.96592,273.99918 151.70709,273.3741 150.28646,272.12394 C 148.8658,270.87376 148.15548,268.87775 148.15549,266.1359 L 148.15549,262.04444 C 148.15548,259.91347 147.7719,258.436 147.00476,257.61202 C 146.2376,256.77384 144.84537,256.35475 142.82806,256.35474 L 141.52816,256.35474 L 141.52816,251.60267 L 142.82806,251.60267 C 144.84537,251.60269 146.2376,251.1907 147.00476,250.36671 C 147.7719,249.54275 148.15548,248.06528 148.15549,245.93429 L 148.15549,241.5658 C 148.15548,238.82397 148.8658,236.83507 150.28646,235.59907 C 151.70709,234.34894 153.96592,233.72385 157.06295,233.72382 L 161.68716,233.72382 L 161.68716,238.51851 L 160.21679,238.51851 C 158.21365,238.51853 156.90666,238.83108 156.2958,239.45613 C 155.69911,240.06704 155.40077,241.38114 155.40079,243.39843 L 155.40079,246.93585 C 155.40077,249.16628 155.08113,250.78582 154.44185,251.79446 C 153.80255,252.80314 152.70154,253.48505 151.13885,253.8402 C 152.71575,254.22378 153.81675,254.9199 154.44185,255.92855 C 155.08113,256.93722 155.40077,258.54965 155.40079,260.76585 L 155.40079,264.30327 C 155.40077,266.3348 155.69911,267.656 156.2958,268.26688 C 156.90666,268.89196 158.21365,269.2045 160.21679,269.2045 L 161.68716,269.2045 M 202.90016,269.2045 L 204.39184,269.2045 C 206.38074,269.2045 207.67353,268.89196 208.27021,268.26688 C 208.88108,267.656 209.18651,266.3348 209.18653,264.30327 L 209.18653,260.76585 C 209.18651,258.54965 209.50616,256.93722 210.14546,255.92855 C 210.78474,254.9199 211.89285,254.22378 213.46978,253.8402 C 211.89285,253.48505 210.78474,252.80314 210.14546,251.79446 C 209.50616,250.78582 209.18651,249.16628 209.18653,246.93585 L 209.18653,243.39843 C 209.18651,241.38114 208.88108,240.06704 208.27021,239.45613 C 207.67353,238.83108 206.38074,238.51853 204.39184,238.51851 L 202.90016,238.51851 L 202.90016,233.72382 L 207.52437,233.72382 C 210.62137,233.72385 212.8802,234.34894 214.30086,235.59907 C 215.72149,236.83507 216.43181,238.82397 216.43183,241.5658 L 216.43183,245.93429 C 216.43181,248.06528 216.81539,249.54275 217.58256,250.36671 C 218.34968,251.1907 219.74192,251.60269 221.75926,251.60267 L 223.05915,251.60267 L 223.05915,256.35474 L 221.75926,256.35474 C 219.74192,256.35475 218.34968,256.77384 217.58256,257.61202 C 216.81539,258.436 216.43181,259.91347 216.43183,262.04444 L 216.43183,266.1359 C 216.43181,268.87775 215.72149,270.87376 214.30086,272.12394 C 212.8802,273.3741 210.62137,273.99918 207.52437,273.99919 L 202.90016,273.99919 L 202.90016,269.2045"
           id="text4598" />
      </g>
    </g>
  </g>
</svg>
