/* XPM */
static const char * awrtool_xpm[] = {
"16 16 6 1",
" 	c None",
".	c #000000",
"+	c #FFFFFF",
"@	c #7D7D7D",
"#	c #333333",
"$	c #C2C2C2",
"       ......   ",
"      ..++++.   ",
"     .+.++++.   ",
"    .++.++++.   ",
"   .....++++.   ",
"   .+++....+.   ",
"   .++.++@.+.   ",
"   .+#$++@.+.   ",
"   .+#+++@.+.   ",
"   .+.+++@.+.   ",
"   .+......+.   ",
"   .+.+++@.+.   ",
"   .+.+++@.+.   ",
"   .+.+++@.+.   ",
"   .++++++++.   ",
"   ..........   "};
