/* XPM */
static const char* const background_xpm[] = {
"16 16 5 1",
" 	c None",
".	c #000000",
"+	c #666666",
"@	c #A0A0A0",
"#	c #0FFE14",
"                ",
" ............   ",
" .++++++++++.   ",
" ............   ",
" .@@@@@@@@@@.   ",
" .@@@@@@@@@@.   ",
" .@@@@@@@@@@.   ",
" .@@@@@@@@@@.   ",
" .@@@@@@@@@@..  ",
" .@@@@@@@@@@.#. ",
" .@@@@@@@@@@.##.",
" ............##.",
"           .##. ",
"           .#.  ",
"           ..   ",
"           .    "};
