/* XPM */
static const char* const canceledit_xpm[] = {
"16 16 4 1",
" 	c None",
".	c #000000",
"+	c #FFFFFF",
"@	c #00FF00",
"                ",
"                ",
"                ",
"...........     ",
"+++++.++++. .   ",
"..++.@.++...@.  ",
"++++.@@.++.@@.  ",
".+..+.@@..@@.   ",
"++++++.@@@@.    ",
"+.+..++.@@.     ",
"++++++.@@@@.    ",
"...++.@@..@@.   ",
"++++.@@.++.@@.  ",
"...+.@.+.+..@.  ",
"+++++.++++. .   ",
"+...+.+....     "};
