/* XPM */
static const char* const changewatch_xpm[] = {
"16 16 74 1",
" 	c None",
".	c #000000",
"+	c #8E8E8E",
"@	c #FFFFFF",
"#	c #262626",
"$	c #828282",
"%	c #D2D2D2",
"&	c #D7D7D7",
"*	c #A2A2A2",
"=	c #393939",
"-	c #8C8C8C",
";	c #FAFAFA",
">	c #FCFCFC",
",	c #BABABA",
"'	c #EBEBEB",
")	c #646464",
"!	c #E8E8E8",
"~	c #FDFDFD",
"{	c #FBFBFB",
"]	c #F9F9F9",
"^	c #F1F1F1",
"/	c #EEEEEE",
"(	c #3B3939",
"_	c #EFEFEF",
":	c #F6F6F6",
"<	c #F4F4F4",
"[	c #F3F3F3",
"}	c #E7E7E7",
"|	c #E5E5E5",
"1	c #676767",
"2	c #424040",
"3	c #E6E6E6",
"4	c #848484",
"5	c #696969",
"6	c #E4E4E4",
"7	c #EAEAEA",
"8	c #4D4D4D",
"9	c #CECECE",
"0	c #E0E0E0",
"a	c #DEDEDE",
"b	c #C2C2C2",
"c	c #252525",
"d	c #101010",
"e	c #CCCCCC",
"f	c #565656",
"g	c #070707",
"h	c #9B9B9B",
"i	c #D9D9D9",
"j	c #D4D4D4",
"k	c #4F4F4F",
"l	c #494646",
"m	c #535353",
"n	c #A9A9A9",
"o	c #B1B1B1",
"p	c #DDDDDD",
"q	c #100F0F",
"r	c #2E2E2E",
"s	c #ADADAD",
"t	c #9A9A9A",
"u	c #D3D3D3",
"v	c #A4A4A4",
"w	c #0E0E0E",
"x	c #232323",
"y	c #201F1F",
"z	c #4A4A4A",
"A	c #494949",
"B	c #434343",
"C	c #141313",
"D	c #5C5A5A",
"E	c #464444",
"F	c #494747",
"G	c #525050",
"H	c #3D3B3B",
"I	c #4C4949",
"             .. ",
"            .++.",
"           .@.+.",
"  ....   ..@@@. ",
" #$%&*= #.@@@.= ",
".-;@@>,..@@@.').",
".!~{;]^.@@@./')(",
"._:<[^.@@@.!}|12",
".34567..@.890a)2",
".bcde....fghijkl",
" mnop..qrstu9vw ",
" .x88=y  dzABCD ",
"   EFG    HFI   ",
"                ",
"                ",
"                "};
