/* XPM */
static const char * const checkcode_xpm[]={
"16 16 4 1",
". c none",
"a c #00ff00",
"# c #ffff00",
"* c #777777",
"................",
"...**********...",
"..*##########*..",
".*############*.",
".*############*.",
".*##**####**##*.",
".*#*aa*##*aa*#*.",
".*#*aaa**aaa*#*.",
".*##*aaaaaa*##*.",
".*###*aaaa*###*.",
".*####*aa*####*.",
".*#####**#####*.",
".*############*.",
"..*##########*..",
"...**********...",
"................"};
