/* XPM */
static const char* const clock_xpm[] = {
"16 16 145 2",
"  	c None",
". 	c #848584",
"+ 	c #545454",
"@ 	c #5D5D5D",
"# 	c #555555",
"$ 	c #A1A1A1",
"% 	c #8B8C8B",
"& 	c #A3A2A3",
"* 	c #EBECEB",
"= 	c #DDDCDD",
"- 	c #EFF1EF",
"; 	c #6D6E6D",
"> 	c #CECFCE",
", 	c #ADADAD",
"' 	c #6B6D6B",
") 	c #303130",
"! 	c #0D0C0D",
"~ 	c #5A5B5A",
"{ 	c #565656",
"] 	c #E2E1E2",
"^ 	c #B7B7B7",
"/ 	c #383838",
"( 	c #080808",
"_ 	c #4C4D4C",
": 	c #CACBCA",
"< 	c #E8E8E8",
"[ 	c #777777",
"} 	c #1B1B1B",
"| 	c #141414",
"1 	c #191819",
"2 	c #151415",
"3 	c #151515",
"4 	c #686868",
"5 	c #DDDEDD",
"6 	c #D4D3D4",
"7 	c #343534",
"8 	c #3A393A",
"9 	c #949494",
"0 	c #AFAFAF",
"a 	c #989898",
"b 	c #DBDADB",
"c 	c #9F9F9F",
"d 	c #454545",
"e 	c #2A2B2A",
"f 	c #C6C6C6",
"g 	c #3E3E3E",
"h 	c #656565",
"i 	c #CDCCCD",
"j 	c #7B7A7B",
"k 	c #CFCFCF",
"l 	c #C9CAC9",
"m 	c #F6F6F6",
"n 	c #F1F2F1",
"o 	c #797879",
"p 	c #313131",
"q 	c #E8E7E8",
"r 	c #9A9A9A",
"s 	c #242524",
"t 	c #C2C1C2",
"u 	c #E5E4E5",
"v 	c #F0F0F0",
"w 	c #F9F9F9",
"x 	c #FBFAFB",
"y 	c #FAFAFA",
"z 	c #DFDFDF",
"A 	c #727272",
"B 	c #A9A9A9",
"C 	c #323232",
"D 	c #868586",
"E 	c #383938",
"F 	c #797979",
"G 	c #B5B5B5",
"H 	c #C7C9C7",
"I 	c #838383",
"J 	c #C8C7C8",
"K 	c #F8F7F8",
"L 	c #CFCECF",
"M 	c #D2D2D2",
"N 	c #DFE1DF",
"O 	c #868886",
"P 	c #0E0E0E",
"Q 	c #A5A4A5",
"R 	c #808080",
"S 	c #ECEBEC",
"T 	c #E2E2E2",
"U 	c #909090",
"V 	c #707070",
"W 	c #F7F7F7",
"X 	c #8D8C8D",
"Y 	c #9E9C9E",
"Z 	c #111111",
"` 	c #161716",
" .	c #A0A0A0",
"..	c #AAAAAA",
"+.	c #EEEDEE",
"@.	c #F4F4F4",
"#.	c #C0C1C0",
"$.	c #E7E6E7",
"%.	c #F8FAF8",
"&.	c #C5C6C5",
"*.	c #181818",
"=.	c #4F514F",
"-.	c #5C5C5C",
";.	c #A6A6A6",
">.	c #A9A8A9",
",.	c #F7F8F7",
"'.	c #B0B1B0",
").	c #DEDEDE",
"!.	c #BBBBBB",
"~.	c #E1E1E1",
"{.	c #BCBDBC",
"].	c #B2B3B2",
"^.	c #716F71",
"/.	c #BCBBBC",
"(.	c #B7B8B7",
"_.	c #B0B2B0",
":.	c #969696",
"<.	c #B7B9B7",
"[.	c #D4D6D4",
"}.	c #8E8F8E",
"|.	c #CFCDCF",
"1.	c #BEBEBE",
"2.	c #212021",
"3.	c #A4A3A4",
"4.	c #676867",
"5.	c #363736",
"6.	c #B3B3B3",
"7.	c #8C8C8C",
"8.	c #C9C8C9",
"9.	c #808180",
"0.	c #999999",
"a.	c #C1C0C1",
"b.	c #6B6B6B",
"c.	c #1A1A1A",
"d.	c #595759",
"e.	c #959795",
"f.	c #616061",
"g.	c #1C1D1C",
"h.	c #585958",
"i.	c #EAEAEA",
"j.	c #5A5C5A",
"k.	c #232223",
"l.	c #1F201F",
"m.	c #535353",
"n.	c #B3B1B3",
"            . + @ # $           ",
"          % & * = - ; >         ",
"          , ' ) ! ~ { ]         ",
"            ^ / ( _ :           ",
"        < [ } | 1 2 3 4 5       ",
"      6 7 8 9 0 a b c d e f     ",
"      g h i j k l m 0 n o p q   ",
"    r s t u v w x y z A B C D   ",
"    E F G H I J K L F M N O p   ",
"    P Q R S T U V 9 W w X Y Z   ",
"    `  ...+.w @.#.$.%.x &.r *.  ",
"    =.-.;.>.,.'.).!.~.{.].^.d   ",
"    /.} (._.:.<.[.).}.|.1.2.3.  ",
"      4.5.6.7. .8.9.0.a.d {     ",
"        b.c.d.0.0.e.f.g.h.i.    ",
"          1.j.k.P l.m.n.        "};
