/* XPM */
static const char* const close_xpm[] = {
"16 16 150 2",
"  	c None",
". 	c #B4908D",
"+ 	c #C5AEAA",
"@ 	c #AB8C89",
"# 	c #581212",
"$ 	c #997875",
"% 	c #C3ABA7",
"& 	c #812222",
"* 	c #872827",
"= 	c #C2A39F",
"- 	c #B28F8C",
"; 	c #671616",
"> 	c #5D0F0F",
", 	c #885A58",
"' 	c #9C4847",
") 	c #942C2C",
"! 	c #973130",
"~ 	c #C7A4A0",
"{ 	c #BA928F",
"] 	c #7C2121",
"^ 	c #731A1A",
"/ 	c #824241",
"( 	c #A7A395",
"_ 	c #CECAB9",
": 	c #CCC7B8",
"< 	c #C7B9A9",
"[ 	c #A84C48",
"} 	c #A63535",
"| 	c #A63838",
"1 	c #C39C93",
"2 	c #BC8E87",
"3 	c #922C2C",
"4 	c #882626",
"5 	c #8E4640",
"6 	c #C8BEAF",
"7 	c #CCC7B6",
"8 	c #9D9A8E",
"9 	c #938D79",
"0 	c #E0D9BF",
"a 	c #D9D2B8",
"b 	c #D6C6AF",
"c 	c #BC5955",
"d 	c #B43D3D",
"e 	c #B03D3C",
"f 	c #A83737",
"g 	c #9D3131",
"h 	c #A5554F",
"i 	c #D5CAB2",
"j 	c #D9D1B8",
"k 	c #D5CDB5",
"l 	c #787465",
"m 	c #989480",
"n 	c #F2EBD0",
"o 	c #EBE3CA",
"p 	c #E7D6C0",
"q 	c #C75754",
"r 	c #BC4141",
"s 	c #B23C3C",
"t 	c #B35551",
"u 	c #E7DBC3",
"v 	c #E1DAC2",
"w 	c #7C7769",
"x 	c #979482",
"y 	c #F7F0D7",
"z 	c #EEE7CF",
"A 	c #E3A799",
"B 	c #D14D4D",
"C 	c #C84747",
"D 	c #BB4040",
"E 	c #AE3C3C",
"F 	c #D4AB9B",
"G 	c #E3DCC6",
"H 	c #7D796B",
"I 	c #949083",
"J 	c #FAF5DD",
"K 	c #F0E9D3",
"L 	c #E4A79A",
"M 	c #DE5353",
"N 	c #DC5252",
"O 	c #D8746E",
"P 	c #C8635E",
"Q 	c #B03B3B",
"R 	c #A33636",
"S 	c #D1A99A",
"T 	c #EFE9D3",
"U 	c #E4DEC9",
"V 	c #7E7B6E",
"W 	c #8F8C80",
"X 	c #FDF9E5",
"Y 	c #F2ECD7",
"Z 	c #DDA397",
"` 	c #CE4B4B",
" .	c #D95151",
"..	c #E07A74",
"+.	c #F1E6D1",
"@.	c #EEE0CC",
"#.	c #BC5D59",
"$.	c #A13333",
"%.	c #932E2D",
"&.	c #D0AE9F",
"*.	c #F1EBD6",
"=.	c #E4DECB",
"-.	c #807D72",
";.	c #9E9A91",
">.	c #E8E7D7",
",.	c #E6C9B9",
"'.	c #BA4040",
").	c #C54646",
"!.	c #D77671",
"~.	c #F3E8D5",
"{.	c #F4EEDB",
"].	c #EFE1CF",
"^.	c #AE5753",
"/.	c #8E2929",
"(.	c #AF736B",
"_.	c #F2ECD9",
":.	c #D7D2C0",
"<.	c #8C8981",
"[.	c #C5C2BB",
"}.	c #B3B1A6",
"|.	c #EEDCCD",
"1.	c #BA5351",
"2.	c #CC7771",
"3.	c #F4EAD9",
"4.	c #F6F1DF",
"5.	c #F0E5D4",
"6.	c #CDA398",
"7.	c #EDE0D0",
"8.	c #F2EDDC",
"9.	c #A9A596",
"0.	c #B6B3AE",
"a.	c #8D8A7F",
"b.	c #F5F4ED",
"c.	c #F9F4E4",
"d.	c #F8F3E3",
"e.	c #EFEADB",
"f.	c #7D7A6E",
"g.	c #8F8B80",
"h.	c #FEFDF4",
"i.	c #FEFBEF",
"j.	c #FDFBEF",
"k.	c #FEFCEF",
"l.	c #F2EFE1",
"m.	c #8C877A",
"n.	c #969389",
"o.	c #9C998F",
"p.	c #9C998E",
"q.	c #9B988F",
"r.	c #959288",
"s.	c #8E8A81",
"      . +             @ # $     ",
"    % & * =         - ; > ,     ",
"      ' ) ! ~     { ] ^ /       ",
"( _ : < [ } | 1 2 3 4 5 6 7 7 8 ",
"9 0 a a b c d e f g h i j j k l ",
"m n o o o p q r s t u o o o v w ",
"x y z z z A B C D E F z z z G H ",
"I J K K L M N O P Q R S K T U V ",
"W X Y Z `  ...+.@.#.$.%.&.*.=.-.",
";.>.,.'.).!.~.{.{.].^./.(._.:.<.",
"[.}.|.1.2.3.4.4.4.4.5.6.7.8.9.0.",
"  a.b.c.d.d.d.d.d.d.d.d.d.e.f.  ",
"    g.h.i.j.j.j.j.j.j.k.l.m.    ",
"      n.o.o.o.o.o.p.q.r.s.      ",
"                                ",
"                                "};
