/* XPM */
static const char * const compilewarning_xpm[] = {
"16 16 66 1",
" 	c None",
".	c #929253",
"+	c #767611",
"@	c #B7B79F",
"#	c #FDFDAA",
"$	c #EFEF12",
"%	c #888800",
"&	c #B5B59D",
"*	c #FDFDDB",
"=	c #F7F758",
"-	c #969600",
";	c #B3B39A",
">	c #FCFCDB",
",	c #F7F763",
"'	c #989804",
")	c #B0B096",
"!	c #FDFDDD",
"~	c #F8F865",
"{	c #909004",
"]	c #ADAD7F",
"^	c #FDFDB7",
"/	c #FFFF32",
"(	c #F9F904",
"_	c #D8D800",
":	c #D5D500",
"<	c #CFCF00",
"[	c #D2D264",
"}	c #D5D51C",
"|	c #E6E617",
"1	c #FFFF2C",
"2	c #FFFF1B",
"3	c #FAFA00",
"4	c #ADAD00",
"5	c #56561D",
"6	c #D4D4C0",
"7	c #FFFFC7",
"8	c #FBFB37",
"9	c #B2B200",
"0	c #D7D7C5",
"a	c #FFFFDF",
"b	c #F9EF7A",
"c	c #A98006",
"d	c #D6D6C1",
"e	c #FFFFDE",
"f	c #FFFF87",
"g	c #E8BF05",
"h	c #AF3C00",
"i	c #A70B00",
"j	c #A30600",
"k	c #A70000",
"l	c #C7C793",
"m	c #F1F187",
"n	c #F1F14E",
"o	c #F7F70D",
"p	c #D89001",
"q	c #AC0F00",
"r	c #949463",
"s	c #D88F2A",
"t	c #A80B00",
"u	c #7D7D51",
"v	c #F7F7A2",
"w	c #B78D07",
"x	c #D1D19E",
"y	c #BEBE14",
"z	c #979775",
"A	c #BFBF4B",
"                ",
"         .+     ",
"        @#$%    ",
"       &*=-     ",
"      ;>,'      ",
"     )!~{       ",
"    ]^/(_::<    ",
"    [}:|1234    ",
"      56789     ",
"      0abc      ",
"     defghijk   ",
"    lmnopqkkk   ",
"       rstkkk   ",
"      uvwkkkk   ",
"      xy        ",
"     zA         "};
