/* XPM */
static const char* const delwatch_xpm[] = {
"16 16 85 1",
" 	c None",
".	c #000000",
"+	c #262626",
"@	c #828282",
"#	c #D2D2D2",
"$	c #D7D7D7",
"%	c #A2A2A2",
"&	c #393939",
"*	c #00FF00",
"=	c #8C8C8C",
"-	c #FAFAFA",
";	c #FFFFFF",
">	c #FCFCFC",
",	c #BABABA",
"'	c #E8E8E8",
")	c #FDFDFD",
"!	c #FBFBFB",
"~	c #F9F9F9",
"{	c #F1F1F1",
"]	c #333333",
"^	c #ABABAB",
"/	c #F3F3F3",
"(	c #EFEFEF",
"_	c #EEEEEE",
":	c #EBEBEB",
"<	c #646464",
"[	c #3B3939",
"}	c #F6F6F6",
"|	c #F4F4F4",
"1	c #F0F0F0",
"2	c #363636",
"3	c #B0B0B0",
"4	c #EAEAEA",
"5	c #E7E7E7",
"6	c #E5E5E5",
"7	c #676767",
"8	c #424040",
"9	c #E6E6E6",
"0	c #848484",
"a	c #696969",
"b	c #E4E4E4",
"c	c #343434",
"d	c #A9A9A9",
"e	c #A7A7A7",
"f	c #4D4D4D",
"g	c #CECECE",
"h	c #E0E0E0",
"i	c #DEDEDE",
"j	c #C2C2C2",
"k	c #252525",
"l	c #101010",
"m	c #CCCCCC",
"n	c #E3E3E3",
"o	c #D3D3D3",
"p	c #282828",
"q	c #565656",
"r	c #070707",
"s	c #9B9B9B",
"t	c #D9D9D9",
"u	c #D4D4D4",
"v	c #4F4F4F",
"w	c #494646",
"x	c #535353",
"y	c #B1B1B1",
"z	c #DDDDDD",
"A	c #D0D0D0",
"B	c #818181",
"C	c #100F0F",
"D	c #2E2E2E",
"E	c #ADADAD",
"F	c #9A9A9A",
"G	c #A4A4A4",
"H	c #0E0E0E",
"I	c #232323",
"J	c #201F1F",
"K	c #4A4A4A",
"L	c #494949",
"M	c #434343",
"N	c #141313",
"O	c #5C5A5A",
"P	c #464444",
"Q	c #494747",
"R	c #525050",
"S	c #3D3B3B",
"T	c #4C4949",
"                ",
"                ",
"                ",
"  .... .........",
" +@#$%&.*******.",
".=-;;>,.........",
".')!-~{]^/{(_:<[",
".(}|/{123:4'5678",
".90ab4'cdefghi<8",
".jklmnop=qrstuvw",
" xdyzABCDEFogGH ",
" .Iff&J  lKLMNO ",
"   PQR    SQT   ",
"                ",
"                ",
"                "};
