/* XPM */
static const char* const down_xpm[] = {
"16 16 11 1",
" 	c None",
".	c #383838",
"+	c #000000",
"@	c #404040",
"#	c #777777",
"$	c #6F6F6F",
"%	c #A6A6A6",
"&	c #F7F7F7",
"*	c #DEDEDE",
"=	c #BFBFBF",
"-	c #E6E6E6",
"                ",
"                ",
"  .++++++++++.  ",
"  .@#$$$$$$.+.  ",
"  %@&******.+%  ",
"   .=-****%+.   ",
"   %@&****.+%   ",
"    .=-**%+.    ",
"    %@&**.+%    ",
"     .=-%+.     ",
"     %@&.+%     ",
"      .=+.      ",
"      %@+%      ",
"       ..       ",
"                ",
"                "};
