/* XPM */
static const char* const droptablespace_xpm[] = {
/* columns rows colors chars-per-pixel */
"16 16 5 1",
"  c black",
". c gray50",
"X c red",
"o c gray100",
"O c None",
/* pixels */
"OOOOO     XX  XX",
"OOOO .... XXXXXX",
"OOO ...... XXXX ",
"OOO  ...   XXXX ",
"OOO o   . XXXXXX",
"OO      . XX  XX",
"O ......    ..  ",
" ........     o ",
"  ......  ooooo ",
" o      o oooo  ",
" oooooooo     o ",
"  oooooo  ooooo ",
" o      o oooo O",
" oooooooo     OO",
"O oooooo OOOOOOO",
"OO      OOOOOOOO"
};
