/* XPM */
static const char* const eraselog_xpm[] = {
"16 16 4 1",
" 	c None",
".	c #000000",
"+	c #FFFFFF",
"@	c #8E8E8E",
"              ..",
"            ....",
"           .+.. ",
"...........+++. ",
".++++++++.+++.  ",
".+....++.+++.   ",
".++++++.+++.    ",
".+..++.+++.     ",
".++++.@.+.      ",
".+..+.@@..      ",
".+++++..+.      ",
".+...++++.      ",
".++++++++.      ",
".+.....++.      ",
".++++++++.      ",
"..........      "};
