/* XPM */
static const char* const lockconnection_xpm[] = {
"32 32 374 2",
"  	c None",
". 	c #0F2626",
"+ 	c #6D7373",
"@ 	c #818484",
"# 	c #7E8282",
"$ 	c #7D8080",
"% 	c #7C8080",
"& 	c #7E8181",
"* 	c #828383",
"= 	c #858585",
"- 	c #D66F21",
"; 	c #C64719",
"> 	c #3F3A3A",
", 	c #895E5E",
"' 	c #9D7272",
") 	c #8F7070",
"! 	c #897575",
"~ 	c #946A6A",
"{ 	c #8F6F6F",
"] 	c #8F6E6E",
"^ 	c #906A6A",
"/ 	c #936B6B",
"( 	c #867C7C",
"_ 	c #808585",
": 	c #DE8636",
"< 	c #ED9E2D",
"[ 	c #D45D18",
"} 	c #DB711B",
"| 	c #4F9191",
"1 	c #757373",
"2 	c #DA2D2D",
"3 	c #FC0303",
"4 	c #FA0404",
"5 	c #FF0000",
"6 	c #F60808",
"7 	c #FB0303",
"8 	c #F90505",
"9 	c #FD0000",
"0 	c #E22020",
"a 	c #987D7D",
"b 	c #829F9F",
"c 	c #D0712C",
"d 	c #F3C05C",
"e 	c #F9C54F",
"f 	c #D04B1A",
"g 	c #E49033",
"h 	c #C96435",
"i 	c #867E7F",
"j 	c #A36463",
"k 	c #FF1010",
"l 	c #F60000",
"m 	c #835A5A",
"n 	c #4F7070",
"o 	c #6B6B8F",
"p 	c #6A6A93",
"q 	c #6D6D90",
"r 	c #686895",
"s 	c #68688A",
"t 	c #676792",
"u 	c #6E5C85",
"v 	c #CF823B",
"w 	c #FDD96A",
"x 	c #F5B944",
"y 	c #CD4813",
"z 	c #FBCB44",
"A 	c #D0813E",
"B 	c #5D7E9E",
"C 	c #856279",
"D 	c #D1212F",
"E 	c #FE0101",
"F 	c #E30101",
"G 	c #2D0D0D",
"H 	c #000F0F",
"I 	c #000404",
"J 	c #000000",
"K 	c #92926C",
"L 	c #91916D",
"M 	c #8E8E70",
"N 	c #8F8F6F",
"O 	c #8D8D71",
"P 	c #8E7660",
"Q 	c #CC7F3A",
"R 	c #FBD86A",
"S 	c #F5B93B",
"T 	c #D35A14",
"U 	c #FBD049",
"V 	c #CE6527",
"W 	c #838B70",
"X 	c #9F705D",
"Y 	c #FA0D04",
"Z 	c #FE0000",
"` 	c #E10404",
" .	c #2F1010",
"..	c #000606",
"+.	c #F3F30B",
"@.	c #F4F40A",
"#.	c #F5F509",
"$.	c #F7F707",
"%.	c #F9F905",
"&.	c #EFDD04",
"*.	c #DE912D",
"=.	c #FBDA6A",
"-.	c #F5BB43",
";.	c #CA4814",
">.	c #FAD252",
",.	c #D77F30",
"'.	c #F2E80A",
").	c #DCAD21",
"!.	c #F0330E",
"~.	c #FB0002",
"{.	c #F41717",
"].	c #886464",
"^.	c #668989",
"/.	c #F3E605",
"(.	c #DD8D2B",
"_.	c #FBD969",
":.	c #F4BC46",
"<.	c #C33D13",
"[.	c #F9D053",
"}.	c #DD8E32",
"|.	c #F1E80D",
"1.	c #DCAB21",
"2.	c #678585",
"3.	c #90906E",
"4.	c #8C8C72",
"5.	c #91765D",
"6.	c #CA6D2C",
"7.	c #FDDC69",
"8.	c #F4B834",
"9.	c #CD5513",
"0.	c #FBD74F",
"a.	c #CF6A28",
"b.	c #7D8E78",
"c.	c #9A7062",
"d.	c #FD0A01",
"e.	c #E30404",
"f.	c #311111",
"g.	c #000909",
"h.	c #000202",
"i.	c #686892",
"j.	c #676796",
"k.	c #666697",
"l.	c #656091",
"m.	c #B96F40",
"n.	c #FDDD6D",
"o.	c #F3B731",
"p.	c #CA5111",
"q.	c #FCD94F",
"r.	c #CF6C2D",
"s.	c #617795",
"t.	c #80617C",
"u.	c #CF1C2F",
"v.	c #FD0101",
"w.	c #DF0101",
"x.	c #330D0D",
"y.	c #CF6A1D",
"z.	c #F8D161",
"A.	c #F2BA38",
"B.	c #BD3612",
"C.	c #F8D451",
"D.	c #D9853A",
"E.	c #817B7D",
"F.	c #9B6262",
"G.	c #F40000",
"H.	c #835757",
"I.	c #4F6D6D",
"J.	c #DE8E2C",
"K.	c #FEE26A",
"L.	c #F4BD32",
"M.	c #C54A11",
"N.	c #FADA4E",
"O.	c #D47530",
"P.	c #5AA3A3",
"Q.	c #807D7D",
"R.	c #CE3030",
"S.	c #F50909",
"T.	c #E21C1C",
"U.	c #ED1313",
"V.	c #E81515",
"W.	c #EC1111",
"X.	c #D13030",
"Y.	c #987575",
"Z.	c #819696",
"`.	c #DD8C33",
" +	c #FCDF6B",
".+	c #E8A02E",
"++	c #C34912",
"@+	c #FDDC4B",
"#+	c #CF6527",
"$+	c #956868",
"%+	c #856666",
"&+	c #7E7F7F",
"*+	c #7E7E7E",
"=+	c #976666",
"-+	c #8B7272",
";+	c #897474",
">+	c #986565",
",+	c #926C6C",
"'+	c #857C7C",
")+	c #808484",
"!+	c #E09739",
"~+	c #FDE264",
"{+	c #ECAE34",
"]+	c #B93A12",
"^+	c #FBDB4F",
"/+	c #D87F34",
"(+	c #738A8A",
"_+	c #728A8A",
":+	c #768787",
"<+	c #7C8181",
"[+	c #7F7E7E",
"}+	c #E19838",
"|+	c #FEE563",
"1+	c #EBB035",
"2+	c #B43711",
"3+	c #FADB4F",
"4+	c #D98236",
"5+	c #D68235",
"6+	c #FBE369",
"7+	c #E39D2F",
"8+	c #C35110",
"9+	c #FBDE4A",
"0+	c #CF6528",
"a+	c #ECAD26",
"b+	c #F7CA2B",
"c+	c #F9D129",
"d+	c #D77D0E",
"e+	c #FBE04B",
"f+	c #D5742F",
"g+	c #D06517",
"h+	c #F3BA0E",
"i+	c #F5BF0E",
"j+	c #F5C00C",
"k+	c #F5BF0B",
"l+	c #FBDF46",
"m+	c #E5A74B",
"n+	c #CF6418",
"o+	c #F1B610",
"p+	c #F8C60F",
"q+	c #F4BE10",
"r+	c #F4C010",
"s+	c #F4C10E",
"t+	c #F5C510",
"u+	c #F8D739",
"v+	c #E9AF38",
"w+	c #CC5B22",
"x+	c #CF6518",
"y+	c #F8C70F",
"z+	c #F4C110",
"A+	c #F4C20F",
"B+	c #F4C50D",
"C+	c #F4C60B",
"D+	c #FDE530",
"E+	c #F0C53D",
"F+	c #C03916",
"G+	c #C65519",
"H+	c #F3B910",
"I+	c #F4C310",
"J+	c #F4C510",
"K+	c #F4C710",
"L+	c #F4C80E",
"M+	c #F4C90B",
"N+	c #FEED41",
"O+	c #E8B147",
"P+	c #C23C15",
"Q+	c #BD481A",
"R+	c #EBA312",
"S+	c #FAC90F",
"T+	c #F4C910",
"U+	c #F4CA10",
"V+	c #F4CB0C",
"W+	c #F3CC00",
"X+	c #F8E356",
"Y+	c #E8B66F",
"Z+	c #BF451A",
"`+	c #EBA712",
" @	c #F5C110",
".@	c #F4CC0F",
"+@	c #F4CB05",
"@@	c #F5D317",
"#@	c #FBEC7F",
"$@	c #EABE86",
"%@	c #CC6118",
"&@	c #F7C410",
"*@	c #F4C20D",
"=@	c #F4C60F",
"-@	c #F6CD0F",
";@	c #F7D20E",
">@	c #F5CC0D",
",@	c #F6D10D",
"'@	c #F4CD0A",
")@	c #F5D321",
"!@	c #F7E24E",
"~@	c #FBED77",
"{@	c #F1D395",
"]@	c #DF986A",
"^@	c #CA5D12",
"/@	c #FACD0F",
"(@	c #F5C410",
"_@	c #F4C50F",
":@	c #FADD30",
"<@	c #E8AC26",
"[@	c #E3A02C",
"}@	c #E09009",
"|@	c #F1C71A",
"1@	c #F7DD2E",
"2@	c #F7E461",
"3@	c #F7E356",
"4@	c #FCF27F",
"5@	c #F6DF9E",
"6@	c #C95B22",
"7@	c #E9A510",
"8@	c #F5CE17",
"9@	c #EFC43B",
"0@	c #D26B29",
"a@	c #ECC14A",
"b@	c #F8E660",
"c@	c #F7E45D",
"d@	c #F7E355",
"e@	c #F9EB82",
"f@	c #E8B980",
"g@	c #E59E10",
"h@	c #FBD60E",
"i@	c #F4C60C",
"j@	c #F7D321",
"k@	c #F1CD57",
"l@	c #E6AF6A",
"m@	c #F8E75D",
"n@	c #F7E455",
"o@	c #F8E65A",
"p@	c #FDF9A4",
"q@	c #EABF86",
"r@	c #C85718",
"s@	c #EEB815",
"t@	c #F7D522",
"u@	c #F7D42A",
"v@	c #F9EE9D",
"w@	c #ECCEA3",
"x@	c #F1D35F",
"y@	c #F9E855",
"z@	c #F8E75A",
"A@	c #FCF382",
"B@	c #EEC988",
"C@	c #DC8D65",
"D@	c #E6B253",
"E@	c #F3DA65",
"F@	c #FBE65E",
"G@	c #FAE469",
"H@	c #F4DE86",
"I@	c #EFCB6F",
"J@	c #F3DA5E",
"K@	c #F3DA58",
"L@	c #F8E859",
"M@	c #FCF27C",
"N@	c #EDC97E",
"O@	c #E3AC79",
"P@	c #E8BB66",
"Q@	c #F3D55E",
"R@	c #FBEA56",
"S@	c #F8E658",
"T@	c #FAE957",
"U@	c #FCEF5A",
"V@	c #FDF584",
"W@	c #E1AB7A",
"X@	c #DC9968",
"Y@	c #ECC75E",
"Z@	c #EDC961",
"`@	c #F3DB6D",
" #	c #F7E381",
".#	c #ECCA83",
"+#	c #ECC787",
"@#	c #DE9A6F",
"##	c #DF9B6A",
"$#	c #DD9870",
"                                  . + @ # $ $ $ $ % % & * =     ",
"                    - ;           > , ' ) ! ~ ~ { ] ^ / ( _     ",
"                  : < [ }       | 1 2 3 4 5 6 7 8 4 9 0 a b     ",
"                c d e f g h     i j k 5 5 5 5 5 5 5 5 l m n     ",
"o p q r s r t u v w x y z A B C D 5 E 5 5 5 5 5 5 5 5 F G H I J ",
"K L L M N N O P Q R S T U V W X Y 5 5 Z Z 5 5 5 5 5 5 `  ...J J ",
"+.@.#.$.$.$.%.&.*.=.-.;.>.,.'.).!.~.Z 5 5 5 5 5 5 5 5 {.].^.    ",
"+.@.#.$.$.$.%./.(._.:.<.[.}.|.1.!.~.Z 5 5 5 5 5 5 5 5 {.].2.    ",
"K L 3.M M M 4.5.6.7.8.9.0.a.b.c.d.5 5 Z Z 5 5 5 5 5 5 e.f.g.h.J ",
"o p q i.j.s k.l.m.n.o.p.q.r.s.t.u.5 v.5 5 5 5 5 5 5 5 w.x.H I J ",
"                y.z.A.B.C.D.    E.F.5 5 5 5 5 5 5 5 5 G.H.I.    ",
"                J.K.L.M.N.O.    P.Q.R.8 S.T.U.T.T.V.W.X.Y.Z.    ",
"                `. +.+++@+#+        $+%+&+*+=+-+;+;+>+,+'+)+    ",
"                !+~+{+]+^+/+        (+(+(+(+(+(+(+(+_+:+<+[+    ",
"                }+|+1+2+3+4+                                    ",
"                5+6+7+8+9+0+                                    ",
"                a+b+c+d+e+f+                                    ",
"              g+h+i+j+k+l+m+                                    ",
"            n+o+p+q+r+s+t+u+v+w+                                ",
"          x+o+y+q+r+z+A+B+C+D+E+F+                              ",
"        G+H+p+q+r+z+I+J+K+L+M+N+O+P+                            ",
"      Q+R+S+q+r+z+I+J+K+T+U+V+W+X+Y+                            ",
"      Z+`+ @r+z+I+J+K+T+U+.@+@@@#@$@                            ",
"      %@&@r+z+*@=@-@;@>@,@'@)@!@~@{@]@                          ",
"      ^@/@(@A+_@:@<@[@}@|@1@2@3@4@5@                            ",
"      6@7@J+_@8@9@0@    a@b@c@d@e@f@                            ",
"        g@h@i@j@k@      l@m@n@o@p@q@                            ",
"        r@s@t@u@v@w@    x@y@z@A@B@C@                            ",
"          D@E@F@G@H@I@J@K@L@M@N@O@                              ",
"            P@Q@R@S@T@U@S@V@N@W@                                ",
"              X@Y@Z@`@ #.#+#@#                                  ",
"                  ##    $#                                      "};
