/* XPM */
static const char* const modconstraint_xpm[] = {
"16 16 6 1",
" 	c None",
".	c #000000",
"+	c #3F3F3F",
"@	c #7F7F7F",
"#	c #A5A5A5",
"$	c #4C4C4C",
"  .+@#.     ..  ",
"   .+@#.   .$$. ",
".   .+@#. .$$.$.",
"#. .##+@#..$.$$.",
"@#.#@@#@+.$$$$. ",
"+@#+@@@..$$$..  ",
".+@#+@.$$$$..   ",
" .+@@.$..$.##.  ",
"  .++.$..$.@@#. ",
"   ....$$.@#+@#.",
"      ...@@@#+@#",
"      .+@+@@+.+@",
"      .+@#++. .+",
"       .+@#.   .",
"        .+@#.   ",
"         .+@#.  "};
