/* XPM */
static const char* const modindex_xpm[] = {
"16 16 6 1",
" 	c None",
".	c #000000",
"+	c #4C4C4C",
"@	c #00FF00",
"#	c #FFFFFF",
"$	c #7F7F7F",
"            ..  ",
"           .++. ",
"   ....   .++.+.",
" ..........+.++.",
" ..    ..@.+++. ",
"       .@@.+..  ",
"      ......    ",
"......+..+.     ",
"####..+..+......",
"$$$$. .++..###.#",
"####. ...#.###.#",
"$$$$. ..........",
"..... .###.###.#",
"      .###.###.#",
"      ..........",
"      .###.###.#"};
