/* XPM */
static const char* const modtable_xpm[] = {
"16 16 4 1",
" 	c None",
".	c #000000",
"+	c #4C4C4C",
"@	c #FFFFFF",
"            ..  ",
"           .++. ",
"          .++.+.",
"...........+.++.",
".@@@.@@@..++++. ",
".........+++..  ",
".@@@.@.++++..   ",
".@@@..+..+.@.   ",
"......+..+...   ",
".@@@.@.++.@@.   ",
".@@@.@@..@@@.   ",
".............   ",
".@@@.@@@.@@@.   ",
".@@@.@@@.@@@.   ",
".............   ",
"                "};
