/* XPM */
static const char* const noclock_xpm[] = {
"16 16 86 1",
" 	c None",
".	c #848584",
"+	c #545454",
"@	c #5D5D5D",
"#	c #555555",
"$	c #A1A1A1",
"%	c #8B8C8B",
"&	c #A3A2A3",
"*	c #EBECEB",
"=	c #DDDCDD",
"-	c #EFF1EF",
";	c #6D6E6D",
">	c #CECFCE",
",	c #ADADAD",
"'	c #6B6D6B",
")	c #303130",
"!	c #0D0C0D",
"~	c #5A5B5A",
"{	c #565656",
"]	c #E2E1E2",
"^	c #FF9494",
"/	c #FF0000",
"(	c #141414",
"_	c #191819",
":	c #DDDEDD",
"<	c #989898",
"[	c #DBDADB",
"}	c #C6C6C6",
"|	c #F6F6F6",
"1	c #AFAFAF",
"2	c #313131",
"3	c #E8E7E8",
"4	c #9A9A9A",
"5	c #C2C1C2",
"6	c #DFDFDF",
"7	c #727272",
"8	c #323232",
"9	c #868586",
"0	c #383938",
"a	c #B5B5B5",
"b	c #C7C9C7",
"c	c #D2D2D2",
"d	c #868886",
"e	c #0E0E0E",
"f	c #ECEBEC",
"g	c #E2E2E2",
"h	c #9E9C9E",
"i	c #111111",
"j	c #161716",
"k	c #F9F9F9",
"l	c #F4F4F4",
"m	c #181818",
"n	c #4F514F",
"o	c #5C5C5C",
"p	c #B0B1B0",
"q	c #DEDEDE",
"r	c #716F71",
"s	c #454545",
"t	c #BCBBBC",
"u	c #1B1B1B",
"v	c #929292",
"w	c #212021",
"x	c #A4A3A4",
"y	c #676867",
"z	c #363736",
"A	c #B3B3B3",
"B	c #8C8C8C",
"C	c #A6A6A6",
"D	c #CCCBCC",
"E	c #808180",
"F	c #999999",
"G	c #C1C0C1",
"H	c #6B6B6B",
"I	c #1A1A1A",
"J	c #595759",
"K	c #959795",
"L	c #616061",
"M	c #1C1D1C",
"N	c #585958",
"O	c #EAEAEA",
"P	c #BEBEBE",
"Q	c #5A5C5A",
"R	c #232223",
"S	c #1F201F",
"T	c #535353",
"U	c #B3B1B3",
"      .+@#$     ",
"     %&*=-;>    ",
"     ,')!~{]    ",
"   ^/^////^     ",
"   ///^(_^/^:   ",
"   ^///^<[^/^}  ",
"   /^///^|1^/23 ",
"  4/5^///^67/89 ",
"  0/ab^///^c/d2 ",
"  e/^fg^///^/hi ",
"  j^/^kl^///^4m ",
"  no^/^pq^///rs ",
"  tuv^////^/^wx ",
"   yzABCDEFGs{  ",
"    HIJFFKLMNO  ",
"     PQReSTU    "};
