/* XPM */
static const char* const nofilter_xpm[] = {
"16 16 5 1",
" 	c None",
".	c #000000",
"+	c #FFFFFF",
"@	c #FF0000",
"#	c #7F7F7F",
"          .     ",
"         ..     ",
"        .+. @@  ",
"........++.@@@  ",
" #####.++#@@@   ",
" ####.++#@@@    ",
" ####.+#@@@.....",
" ####.#@@@##### ",
" ####.@@@###### ",
" ####@@@........",
" ###@@@++#.     ",
" ##@@@++#.      ",
"..@@@.+#.       ",
"  @@ .#.        ",
"     ..         ",
"     .          "};
