/* XPM */
static const char* const offline_xpm[] = {
"16 16 3 1",
" 	c None",
".	c #000000",
"+	c #828282",
"                ",
"                ",
"                ",
"      ....      ",
"     .++++.     ",
"    .++.+++.    ",
"    .+++.++.    ",
"    .++.+++.    ",
"     .++++.     ",
"      ....      ",
"      .++.      ",
"      ....      ",
"      .++.      ",
"       ..       ",
"                ",
"                "};
