/* XPM */
static const char* const paste_xpm[] = {
"16 16 8 1",
" 	c None",
".	c #000000",
"+	c #FFFF00",
"@	c #848284",
"#	c #C6C3C6",
"$	c #848200",
"%	c #000084",
"&	c #FFFFFF",
"     .....      ",
"   ..+++++..    ",
"  ...+...+...   ",
"  .@.#####.@.   ",
"  .$.#####.$.   ",
"  .@.......@.   ",
"  .$@$@$@$@$.   ",
"  .@$@%%%%%%%   ",
"  .$@$%&&&&%&%  ",
"  .@$@%&%%&%&&% ",
"  .$@$%&&&&%%%% ",
"  .@$@%&%%&&&&% ",
"  .$@$%&&&&&&&% ",
"   ...%&%%%%%&% ",
"      %&&&&&&&% ",
"      %%%%%%%%% "};
