/* XPM */
static const char* const print_xpm[] = {
"16 16 7 1",
" 	c None",
".	c #000000",
"+	c #FFFFFF",
"@	c #808080",
"#	c #808000",
"$	c #C0C0C0",
"%	c #800000",
"                ",
"     .........  ",
"    .++++++++.  ",
"    .+.....+.   ",
"   .++++++++.   ",
"   .+.....+.... ",
"  .++++++++.@.@.",
" ..........@.@..",
".#$#$#$#$#$.@.@.",
".............@@.",
".#$#$#$@%%$#.@..",
".$#$#$#$#$#$....",
"............... ",
" .............  ",
"                ",
"                "};
