/* XPM */
static const char* const redo_xpm[] = {
"16 16 9 1",
" 	c None",
".	c #5D5C84",
"+	c #151584",
"@	c #000084",
"#	c #323184",
"$	c #201F84",
"%	c #302F84",
"&	c #1E1E84",
"*	c #848284",
"                ",
"                ",
"                ",
"                ",
"  .+@@@@        ",
" #@@@@@@@@    @ ",
" $@      @@@ @@ ",
" @        @@@@@ ",
" @         @@@@ ",
" @        @@@@@ ",
" %@      @@@@@@ ",
" &@@*           ",
"   @@           ",
"                ",
"                ",
"                "};
