/* XPM */
static const char* const returnfrom_xpm[] = {
"16 16 10 1",
" 	c None",
".	c #000000",
"+	c #FFFFFF",
"@	c #005500",
"#	c #000D00",
"$	c #002800",
"%	c #008F00",
"&	c #00EE00",
"*	c #007F00",
"=	c #004C00",
"                ",
"                ",
" ......         ",
" .++++.         ",
" .++++. .       ",
" .++++. ...     ",
" .++++.  ...    ",
" ......   ..    ",
"           .    ",
"          ...   ",
"        ..@#$.. ",
"         .%&*.  ",
"          .=.   ",
"           .    ",
"                ",
"                "};
