/* XPM */
static const char* const rollback_xpm[] = {
"16 16 15 1",
" 	c None",
".	c #000000",
"+	c #F1F1F1",
"@	c #DADADA",
"#	c #D6D6D6",
"$	c #C7C7C7",
"%	c #7F7F7F",
"&	c #D5D5D5",
"*	c #C5C5C5",
"=	c #1F1F1F",
"-	c #3F3F3F",
";	c #5F5F5F",
">	c #9F9F9F",
",	c #BFBFBF",
"'	c #DFDFDF",
"        .....   ",
"      ..++++@.. ",
" .. ..++++++++#.",
" .+.++++.....+$.",
" .++++..     .+.",
" .+++......  .+.",
" .++++.%%%%. .+.",
" ......%%%%%.+&.",
"   ..%%%%%%.++*.",
"   ........@++. ",
"   ..=-;%>,...  ",
"   ..=-;%>,'.   ",
"   ..=-;%>,'.   ",
"   ..=-;%>,'.   ",
"    .=-;%>,.    ",
"     ......     "};
