/* XPM */
static const char* const scheduler_xpm[]={
"32 32 253 2",
"Qt c None",
".a c #b5b5b5",
"bS c #000000",
"b6 c #000000",
"b3 c #000000",
"bV c #141414",
"b2 c #141414",
"bY c #262626",
"b0 c #252525",
"b4 c #000000",
"b5 c #000000",
"bN c #000000",
"aD c #000000",
".c c #003d00",
".d c #003c00",
".e c #003e00",
".g c #0a460a",
".i c #003b00",
".X c #003c00",
"bR c #c2c2c2",
"b1 c #c5c5c5",
"bU c #c9c9c9",
"bZ c #c9c9c9",
"bX c #cdcdcd",
".b c #8e8e8e",
".h c #e9eae9",
".H c #006000",
"au c #008200",
"at c #008300",
"ab c #008400",
"ac c #008500",
"#A c #008600",
"#g c #008700",
".F c #008800",
"#h c #008900",
".Y c #008a00",
".G c #008b00",
".W c #008c00",
".U c #015501",
"av c #018c00",
"aC c #018d00",
".Z c #027401",
"#i c #028d01",
".J c #035502",
".k c #038d03",
"#V c #038e01",
"#f c #038e02",
".l c #048603",
".j c #048b04",
".E c #048d04",
".V c #048e02",
".D c #058e04",
"ad c #058f02",
"as c #058f03",
"#e c #067203",
"#B c #068f03",
".C c #078905",
"aa c #079005",
"#U c #089005",
"#j c #089104",
".S c #096407",
"#W c #099104",
"ae c #0a9205",
"aw c #0b9205",
"#C c #0b9306",
"#k c #0e9407",
"af c #0f9508",
"#D c #129609",
"#l c #15980b",
"ag c #15990b",
"#E c #199b0d",
".4 c #1a7c0d",
"ax c #1a9b0d",
"#X c #1b9c0e",
"#m c #1d9d0f",
"ay c #1e9e10",
"#a c #208512",
"#F c #209f11",
"#Y c #21a011",
"#z c #229d1b",
"az c #22a012",
"#n c #24a113",
"aA c #25a213",
"ah c #26a314",
"#G c #27a314",
"#Z c #28a415",
"#d c #293728",
".1 c #293729",
".0 c #293929",
"aB c #29a516",
".2 c #2a3429",
"ai c #2aa516",
"#c c #2b3729",
"#b c #2b3a2a",
"#o c #2ba617",
".3 c #2c392b",
"#H c #2da718",
".5 c #2ea818",
"#y c #2fa326",
".K c #30a919",
"ar c #31a42d",
"aj c #31a91a",
"#p c #32aa1a",
"#x c #33a727",
"ak c #33aa1a",
"al c #33ab1b",
"#I c #34ab1b",
".6 c #36ad1c",
"#0 c #37ad1d",
".n c #38a32c",
".L c #39ae1e",
"#q c #3aaf1f",
"#1 c #3baf1f",
"#w c #3cad2a",
"#2 c #3db120",
"#3 c #3eb121",
".7 c #3fb221",
"#J c #40b322",
".M c #42b423",
"#v c #44b12e",
".A c #45a938",
"ao c #45af37",
"#K c #45b625",
".8 c #48b726",
"#L c #48b826",
"#r c #49b827",
"ap c #4ab042",
".N c #4bb928",
"#u c #4db735",
".o c #4fb83e",
"#s c #4fbc2a",
".9 c #50bc2b",
"#t c #53be2c",
"#Q c #54b548",
".O c #55bf2d",
"#. c #58c12f",
"am c #5ab94b",
".p c #5bbd46",
".z c #5bbe47",
".P c #5ec432",
"## c #60c633",
"aq c #63ba5e",
".q c #65c450",
".Q c #66ca36",
"#M c #67c152",
".R c #6bcd39",
".r c #70cb57",
".y c #71cb57",
"an c #72c366",
".s c #7cd15f",
".x c #7cd160",
"#8 c #83c97c",
".t c #84d766",
".w c #85d766",
".u c #8ddb6c",
".# c #8e8e8e",
".T c #8e908e",
"#4 c #8ed081",
".v c #90dd6f",
".I c #929292",
"#R c #99d394",
"bT c #9b9b9b",
"#T c #9bd398",
"a# c #9cd39a",
"bW c #9d9d9d",
"#S c #a1d59e",
"#N c #a5da9a",
"#P c #a6d99e",
"#7 c #a6d99f",
"bA c #a70000",
"#O c #a8da9f",
"by c #a90000",
"aH c #aaaaaa",
"a. c #aad9a7",
"bu c #acacac",
"aL c #aeaeae",
"bE c #b0b0b0",
"aP c #b1b1b1",
"bJ c #b2b2b2",
"bO c #b3b3b3",
"#9 c #b3ddb0",
"#6 c #b3dfac",
"aT c #b5b5b5",
"bP c #b6b6b6",
"bL c #b7b7b7",
"bK c #b8b8b8",
"bG c #b9b9b9",
"bx c #bababa",
"aW c #bbbbbb",
"#5 c #bbe2b4",
"bQ c #bdbdbd",
"aI c #c0c0c0",
"aJ c #c1c1c1",
"bm c #c2c2c2",
"aK c #c3c3c3",
"a3 c #c4c4c4",
"bv c #c5c5c5",
"aM c #c6c6c6",
"aN c #c7c7c7",
"bo c #c8c8c8",
"aO c #c9c9c9",
"a7 c #cacaca",
"aQ c #cbcbcb",
"aR c #cccccc",
"bj c #cdcdcd",
"aS c #cecece",
"b# c #cfcfcf",
".B c #cfd3cf",
"aU c #d1d1d1",
"aV c #d2d2d2",
"bI c #d3d3d3",
"bF c #d4d4d4",
".m c #d5d5d5",
"bl c #d6d6d6",
"aX c #d7d7d7",
"aY c #dddddd",
"aZ c #dedede",
"a0 c #dfdfdf",
"bD c #e00000",
"a1 c #e0e0e0",
"be c #e1e1e1",
"bw c #e20000",
"a2 c #e2e2e2",
"bn c #e3e3e3",
"bf c #e4e4e4",
"a4 c #e5e5e5",
"bg c #e6e6e6",
"a5 c #e7e7e7",
"bh c #e8e8e8",
"a6 c #e9e9e9",
"bp c #eaeaea",
"bi c #ebebeb",
"a8 c #ececec",
"a9 c #ededed",
".f c #eeeeee",
"b. c #efefef",
"bq c #f0f0f0",
"bk c #f1f1f1",
"br c #f2f2f2",
"ba c #f3f3f3",
"bs c #f4f4f4",
"bb c #f5f5f5",
"bB c #f6e6e6",
"bM c #f6f6f6",
"bz c #f7e6e6",
"bc c #f7f7f7",
"bH c #f8f8f8",
"bC c #f9f9f9",
"bt c #fafafa",
"bd c #fbfbfb",
"aG c #fcfcfc",
"aF c #fdfdfd",
"aE c #fefefe",
"QtQtQtQt.#.#.#.#QtQtQtQtQtQtQtQtQtQtQtQtQtQtQt.a.#.#.#.bQtQtQtQt",
".c.d.d.e.f.f.f.f.e.e.e.e.e.e.e.e.e.e.e.e.e.e.e.g.f.f.f.h.e.e.d.c",
".i.j.k.l.m.m.m.m.n.o.p.q.r.s.t.u.v.u.w.x.y.q.z.A.m.m.m.B.C.D.E.i",
".i.F.G.H.I.I.I.I.J.K.L.M.N.O.P.Q.R.Q.P.O.N.M.L.S.I.I.I.T.U.V.W.i",
".X.F.Y.Z.0.1.2.3.4.5.6.7.8.9#..P##.P#..9.8.7.6#a#b#c.2#d#e#f.G.X",
".X#g#h#i#j#k#l#m#n#o#p#q.M#r#s#t.O#t#s#r.M#u#v#w#n#x#y#z#j#i.Y.X",
".X#A.F.W#B#C#D#E#F#G#H#I#q#J#K#L#r#L#K#J#M#N#O#P#Q#R#S#T#U.W#h.X",
".X#A#A.Y#V#W#k#l#X#Y#Z#H#p#0#1#2#3#2#1#0#4#5#6#7#8#9a.a#aa.Y.F.X",
".Xabac.F.Wadaeafag#X#Yahai.5ajakalakaj.5amanao#Xapaqaras.W.F#g.X",
".Xatau#A#hav#Bawaf#laxayazaA#ZaBaiaB#ZaAazayax#lafaw#BaC#h#Aac.X",
"aDaEaFaFaFaFaFaFaFaFaFaFaFaFaFaFaFaFaFaFaFaFaFaFaFaFaFaFaFaFaEaD",
"aDaEaFaFaFaFaFaFaFaFaFaFaFaFaFaFaFaFaFaFaFaFaFaFaFaFaFaFaFaGaFaD",
"aDaFaGaGaHaIaIaIaIaIaHaJaKaKaLaMaNaOaPaQaRaSaTaUaVaVaWaXaGaGaFaD",
"aDaFaGaGaIaYaZaZa0a0aIaZa1a2a3a4a5a6a7a8a9b.b#babbbcaXaGaGaGaFaD",
"aDaFbdbdaJa0a1a1bebeaIaZa1a1aKbfbgbhaObia9.fbjbkbabbblbdbdbdaFaD",
"aDaFbdbdbmbebebea2a2aIaYa0beaKbna4a5bobpa8.faSbqbrbsblbdbdbdaFaD",
"aDaFbdbtbuaKaKa3a3bvbwbwbwbwbwbwbwbwbx.m.m.mbx.m.m.mbx.mbtbtaGaD",
"aDaGbtbta3bfbfa4a4bgbybzbzbzbzbzbzby.mbtbtbt.mbtbtbt.mbtbtbtaGaD",
"aDaGbtbtaMbgbgbgbga5bAbBbBbBbBbBbBbA.mbCbCbC.mbCbCbC.mbCbCbCaGaD",
"aDaGbCbCaMbga5bhbha6bDbDbDbDbDbDbDbD.mbCbCbC.mbCbCbC.mbCbCbCaGaD",
"aDaGbCbCbEboaOboaOaObx.m.m.mbxbFbFbFbwbwbwbwbGbFbFbFbGbFbHbHbdaD",
"aDbdbHbHaOa6bpbpbibpbFbHbHbHbFbHbHbHbybzbzbybFbHbHbHbFbHbHbHbdaD",
"aDbdbHbHa7bpbibia8a8bFbHbHbHbFbHbHbHbAbBbBbAbIbcbcbcbIbcbcbcbdaD",
"aDbdbcbcaQa8a8a8a9a9bIbcbcbcbIbcbcbcbDbDbDbDbIbcbcbcbIbcbcbcbdaD",
"aDbdbcbcbJaRaRaRaRbjbKbIbIbIbKbIbIbIbKbIbIbIbwbwbwbwbLaVbMbMbtbN",
"aDbtbMbMaR.f.fb.b.b.aVbMbMbMaVbMbMbMaVbMbMbMbybzbzbyaVbMbMbMbtbN",
"aDbtbMbMbjb.b.bqbqbkaVbMbMbMaVbMbMbMaVbMbMbMbAbBbBbAbObPbQaObRbS",
"aDbtbbbbbjbqbqbkbkbraVbbbbbbaVbbbbbbaVbbbbbbbDbDbDbDbTaEbMbUbVQt",
"aDbtbbbbbLaVaVaVaVaVbLaVaVaVbLaVaVaVbLaVaVaVbLaVaVaVbWbsbXbYQtQt",
"bNbCbsbsbsbsbsbsbsbsbsbsbsbsbsbsbsbsbsbsbsbsbsbsbsbsaNbZb0QtQtQt",
"bNaGbCbCbCbCbCbCbCbCbCbCbCbCbCbCbCbCbCbCbCbCbCbCbCbCb1b2QtQtQtQt",
"b3b4b4b5b5b5b5b5b5b5b5b5b5b5b5b5b5b5b5b5b5b5b5b5b5b4b6QtQtQtQtQt"};
