/* XPM */
static const char* const shrink_xpm[] = {
"16 16 15 1",
" 	c None",
".	c #000000",
"+	c #A7A7A7",
"@	c #D3D3D3",
"#	c #AFAFAF",
"$	c #B6B6B6",
"%	c #BDBDBD",
"&	c #C5C5C5",
"*	c #CCCCCC",
"=	c #DADADA",
"-	c #E1E1E1",
";	c #E9E9E9",
">	c #F0F0F0",
",	c #F7F7F7",
"'	c #00FF00",
"      .+@.      ",
"      .+@.      ",
"      .+@.      ",
"  ............  ",
" .+#$%&*@=-;>,. ",
" .............. ",
"   .''''''''.   ",
"  .''''''''''.  ",
"  .''''''''''.  ",
"   .''''''''.   ",
" .............. ",
" .+#$%&*@=-;>,. ",
"  ............  ",
"      .+@.      ",
"      .+@.      ",
"      .+@.      "};
