/* XPM */
static const char* const sql_xpm[] = {
"16 16 17 1",
" 	c None",
".	c #000000",
"+	c #5D5DFB",
"@	c #5F5FFF",
"#	c #3F3FAB",
"$	c #2B2B74",
"%	c #4242B2",
"&	c #5E5EFE",
"*	c #21215B",
"=	c #4C4CCE",
"-	c #5C5CF7",
";	c #313185",
">	c #1A1A47",
",	c #303081",
"'	c #5959F0",
")	c #242463",
"!	c #2D2D7B",
"                ",
" ...  ...  ..   ",
".  . .  .  .    ",
"..   .   . .    ",
"  .  ..... .    ",
"   . .+@#. .    ",
".  ..$%&*=..  . ",
" .. .-;>,@..... ",
"    .@@')!.     ",
"     .@@@.      ",
"      .....     ",
"         ...    ",
"          ...   ",
"           ..   ",
"                ",
"                "};
