/* XPM */
static const char* const stop_xpm[] = {
"16 16 18 1",
" 	c None",
".	c #000000",
"+	c #FFFFFF",
"@	c #FF0000",
"#	c #FF0303",
"$	c #FF8484",
"%	c #FFC9C9",
"&	c #FF1C1C",
"*	c #FF0707",
"=	c #FF1111",
"-	c #FF1F1F",
";	c #FF2828",
">	c #FF4A4A",
",	c #FF0F0F",
"'	c #FF3838",
")	c #FF0202",
"!	c #FF1313",
"~	c #FF9999",
"    ........    ",
"   .++++++++.   ",
"  .++@@@@@@++.  ",
" .++@@@@@@@@++. ",
".++@@@@@@@@@@++.",
".+@@@@@@@@@@@@+.",
".+#+++++$+$+%&+.",
".+*%@=+-+;++%>+.",
".+,@%=+-+;++')+.",
".+@++!+=~+$+'@+.",
".+@@@@@@@@@@@@+.",
".++@@@@@@@@@@++.",
" .++@@@@@@@@++. ",
"  .++@@@@@@++.  ",
"   .++++++++.   ",
"    ........    "};
