/* XPM */
static const char* const toanalyze_xpm[] = {
"16 16 9 1",
" 	c None",
".	c #000000",
"+	c #BFBFBF",
"@	c #3F3F3F",
"#	c #7F7F7F",
"$	c #1F1F1F",
"%	c #5F5F5F",
"&	c #9F9F9F",
"*	c #DFDFDF",
"        ....... ",
"       .+++++++.",
"       .+@@@@@+.",
"       .+@@@@@+.",
"       .+++++++.",
"  ......+@+@+@+.",
" .#####.+++++++.",
".######.+@+@+@+.",
"..#####.+++++++.",
"........+@+@+@+.",
"..$@%#&.+++++++.",
"..$@%#&+....... ",
"..$@%#&+*.      ",
"..$@%#&+*.      ",
" .$@%#&+.       ",
"  ......        "};
