/* XPM */
static const char* const tobrowser_xpm[] = {
"16 16 11 1",
" 	c None",
".	c #000000",
"+	c #5F5FFF",
"@	c #000093",
"#	c #7F7F7F",
"$	c #DFDFDF",
"%	c #1F1F1F",
"&	c #3F3F3F",
"*	c #5F5F5F",
"=	c #9F9F9F",
"-	c #BFBFBF",
"                ",
"        ...     ",
"       .+++.    ",
"      .+++++.   ",
"      .+++++.   ",
"  .....@++++.   ",
" .#####.@++.    ",
".#######.....   ",
"..######.. ...  ",
"........$.  ... ",
"..%&*#=-$.   .. ",
"..%&*#=-$.      ",
"..%&*#=-$.      ",
"..%&*#=-$.      ",
" .%&*#=-.       ",
"  ......        "};
