/* XPM */
static const char* const togglebreak_xpm[] = {
"16 16 19 1",
" 	c None",
".	c #000000",
"+	c #FFFFFF",
"@	c #00FF00",
"#	c #FF0000",
"$	c #FF0303",
"%	c #FF8484",
"&	c #FF1C1C",
"*	c #FF0707",
"=	c #FFC9C9",
"-	c #FF1111",
";	c #FF1F1F",
">	c #FF2828",
",	c #FF4A4A",
"'	c #FF0F0F",
")	c #FF0202",
"!	c #FF1313",
"~	c #FF9999",
"{	c #FF3838",
"    .........   ",
"   .++++++.@.   ",
"  .++#####.@..  ",
" .++###....@....",
".++####.@@@@@@@.",
".+#####....@....",
".+$+++++%+.@.&+.",
".+*=#-+;+>.@.,+.",
".+'#=-+;+>...)+.",
".+#++!+-~+%+{#+.",
".........#####+.",
".@@@@@@@.####++.",
".........###++. ",
"  .++######++.  ",
"   .++++++++.   ",
"    ........    "};
