/* XPM */
static const char* const toramini_xpm[] = {
"16 16 51 1",
" 	c None",
".	c #3077BA",
"+	c #528EC6",
"@	c #5A92C8",
"#	c #4F8BC4",
"$	c #226EB5",
"%	c #3E80BE",
"&	c #BAD2E8",
"*	c #FFFFFF",
"=	c #DCE8F4",
"-	c #D6E4F1",
";	c #5690C6",
">	c #397DBD",
",	c #E4EDF6",
"'	c #A9C6E2",
")	c #D9E6F2",
"!	c #E3EDF6",
"~	c #F5F8FC",
"{	c #FCFDFE",
"]	c #8DB4D9",
"^	c #F1F6FA",
"/	c #E0EBF4",
"(	c #4283C0",
"_	c #EAF2F8",
":	c #C8DBEC",
"<	c #377CBC",
"[	c #A5C4E1",
"}	c #528EC5",
"|	c #5992C8",
"1	c #B7D0E7",
"2	c #75A4D1",
"3	c #4182BF",
"4	c #EEF4F9",
"5	c #78A7D2",
"6	c #5D94C8",
"7	c #BDD4E9",
"8	c #90B6DA",
"9	c #4F8CC4",
"0	c #83AED5",
"a	c #ACC9E3",
"b	c #72A2D0",
"c	c #F8FAFD",
"d	c #4C89C3",
"e	c #7CA9D3",
"f	c #BFD5E9",
"g	c #CEDFEF",
"h	c #6097CA",
"i	c #6EA0CE",
"j	c #2C75B8",
"k	c #2771B7",
"l	c #2B74B8",
"                ",
"     .+@#$      ",
"    %&**=-;     ",
"   >,')!)~{@    ",
"  %'~]*~!^*/$   ",
"  (~_:**&<[*}   ",
"  |**{1*/;&*2   ",
"  ({*~345&**6   ",
"  .7*_8_9**4%   ",
"   9~**0a**b    ",
"    ;,cdc~e     ",
"   fgdh0i>      ",
"  $j&           ",
" $$             ",
"k$              ",
"$l              "};
