/* XPM */
static const char* const tosgatrace_xpm[] = {
"16 16 3 1",
" 	c None",
".	c #000000",
"+	c #5E5E5E",
"                ",
"                ",
"                ",
"   ..           ",
"  .++..    ..   ",
"  .+.++.  .++.. ",
" .++++..  .+.++.",
" .+++.   .++++..",
"  ...    .+++.  ",
"          ...   ",
"    ..          ",
"   .++..        ",
"   .+.++.       ",
"  .++++..       ",
"  .+++.         ",
"   ...          "};
