/* XPM */
static const char* const totemporary_xpm[] = {
"16 16 195 2",
"  	c None",
". 	c #C4C4CE",
"+ 	c #D1D1DB",
"@ 	c #D8D8E0",
"# 	c #C8C8D3",
"$ 	c #B9B9C7",
"% 	c #C8C8D6",
"& 	c #E9E9EE",
"* 	c #F2F1F3",
"= 	c #C3CBE0",
"- 	c #95AAD9",
"; 	c #93A8D8",
"> 	c #B0BAD7",
", 	c #E2E1E6",
"' 	c #DCDCE3",
") 	c #A3A3B6",
"! 	c #CACAD5",
"~ 	c #F6F6F7",
"{ 	c #B9C5E2",
"] 	c #8BA7E0",
"^ 	c #BCCCF1",
"/ 	c #CCCCEC",
"( 	c #BCC1E8",
"_ 	c #C9DEF8",
": 	c #8AABE2",
"< 	c #94A4CE",
"[ 	c #DCDCE4",
"} 	c #9F9FB3",
"| 	c #C3C3D0",
"1 	c #F4F4F6",
"2 	c #AABADF",
"3 	c #99B8EB",
"4 	c #CDE0F6",
"5 	c #E6F5FD",
"6 	c #E9F4FC",
"7 	c #E1EFFA",
"8 	c #E0F6FF",
"9 	c #D7F4FF",
"0 	c #B2DAF8",
"a 	c #7E98CB",
"b 	c #D4D3DB",
"c 	c #9292A9",
"d 	c #E1E1E8",
"e 	c #C5CFE6",
"f 	c #82AAE9",
"g 	c #C0E0F8",
"h 	c #D8F4FF",
"i 	c #DEF5FF",
"j 	c #E0F5FF",
"k 	c #D7F3FF",
"l 	c #CEF0FF",
"m 	c #C0E7FD",
"n 	c #99C9F8",
"o 	c #899BC4",
"p 	c #B6B6C5",
"q 	c #C6C6D3",
"r 	c #7A9BDA",
"s 	c #A1C6F1",
"t 	c #C4EAFE",
"u 	c #D3F2FF",
"v 	c #D5F2FF",
"w 	c #CDF0FF",
"x 	c #C4E9FE",
"y 	c #B6DFFC",
"z 	c #A8D5FA",
"A 	c #6291D7",
"B 	c #BCBCCA",
"C 	c #81819B",
"D 	c #CDCDD8",
"E 	c #E6E7EE",
"F 	c #6492E3",
"G 	c #A5D0F8",
"H 	c #B5DEFB",
"I 	c #BEE5FD",
"J 	c #C5EBFE",
"K 	c #B8D9E3",
"L 	c #B3D4DF",
"M 	c #BEE6FD",
"N 	c #B4DEFC",
"O 	c #A9D6FA",
"P 	c #5597F2",
"Q 	c #9B9EB6",
"R 	c #9191A7",
"S 	c #D6D6E1",
"T 	c #D7D9E3",
"U 	c #5585E2",
"V 	c #8FBAF1",
"W 	c #A7D4FA",
"X 	c #A1CFF9",
"Y 	c #A2D3FB",
"Z 	c #3B4145",
"` 	c #4A4E51",
" .	c #A2CDEF",
"..	c #9DCCF9",
"+.	c #85BAF6",
"@.	c #5E9BEF",
"#.	c #3875E4",
"$.	c #8490B5",
"%.	c #8A8AA2",
"&.	c #D3D3DF",
"*.	c #D6D8E1",
"=.	c #5486E3",
"-.	c #77A9EF",
";.	c #80B6F5",
">.	c #8ABEF6",
",.	c #98CAFA",
"'.	c #415059",
").	c #1F2122",
"!.	c #6182A4",
"~.	c #8CC0F8",
"{.	c #7DB4F5",
"].	c #6AA5F1",
"^.	c #4C85E8",
"/.	c #828EB1",
"(.	c #84849D",
"_.	c #C4C4D2",
":.	c #E4E5EB",
"<.	c #6393E3",
"[.	c #7DB5F5",
"}.	c #91C3F7",
"|.	c #A0CFFA",
"1.	c #ACD8FA",
"2.	c #54676A",
"3.	c #5A6F7C",
"4.	c #1C2328",
"5.	c #7497B5",
"6.	c #92C5F8",
"7.	c #7EB4F5",
"8.	c #68A6F4",
"9.	c #8C8FA9",
"0.	c #82829C",
"a.	c #B5B5C6",
"b.	c #EFEFF2",
"c.	c #88A4D7",
"d.	c #8CBFF7",
"e.	c #A3D1FA",
"f.	c #B6E0FC",
"g.	c #5F696A",
"h.	c #7C919A",
"i.	c #ADCED5",
"j.	c #1F2529",
"k.	c #7698B6",
"l.	c #8FC2F8",
"m.	c #739CD4",
"n.	c #9A99AE",
"o.	c #6C6C8A",
"p.	c #D3D3DC",
"q.	c #C8CCDC",
"r.	c #92BEF0",
"s.	c #B1DCFB",
"t.	c #C6EBFE",
"u.	c #B9CBCF",
"v.	c #B7CBD3",
"w.	c #D6F4FF",
"x.	c #A8C6CE",
"y.	c #4D606E",
"z.	c #95C4F0",
"A.	c #828DAE",
"B.	c #A5A5B9",
"C.	c #E6E6EB",
"D.	c #B3BDD3",
"E.	c #B8DEF7",
"F.	c #D1F2FF",
"G.	c #E9F5FD",
"H.	c #E6F2FB",
"I.	c #D2F2FF",
"J.	c #BAE2F7",
"K.	c #8899B7",
"L.	c #9696AB",
"M.	c #70708D",
"N.	c #AAAABC",
"O.	c #DEDEE5",
"P.	c #BBC1D0",
"Q.	c #BFD5E2",
"R.	c #E9FAFF",
"S.	c #DBDFF4",
"T.	c #CACCED",
"U.	c #BDD2DF",
"V.	c #9099B1",
"W.	c #9898AD",
"X.	c #6E6E8C",
"Y.	c #9B9BB2",
"Z.	c #C4C4D0",
"`.	c #CBCBD6",
" +	c #AFB0C0",
".+	c #B0B3C3",
"++	c #AEB1C1",
"@+	c #9798AE",
"#+	c #9D9DB1",
"$+	c #9393A9",
"%+	c #9494AC",
"&+	c #9B9BAF",
"*+	c #9999AE",
"=+	c #8787A0",
"-+	c #797995",
"          . + @ @ # $           ",
"      % & * = - ; > , ' )       ",
"    ! ~ { ] ^ / ( _ : < [ }     ",
"  | 1 2 3 4 5 6 7 8 9 0 a b c   ",
"  d e f g h i j i k l m n o p   ",
"q 1 r s t l u v u w x y z A B C ",
"D E F G H I J K L M N O n P Q R ",
"S T U V W X Y Z `  ...+.@.#.$.%.",
"&.*.=.-.;.>.,.'.).!.~.{.].^./.(.",
"_.:.<.[.}.|.1.2.3.4.5.6.7.8.9.0.",
"a.b.c.d.e.f.t g.h.i.j.k.l.m.n.o.",
"  p.q.r.s.t.v u.v.w.x.y.z.A.%.  ",
"  B.C.D.E.F.8 G.H.8 I.J.K.L.M.  ",
"    N.O.P.Q.R.S.T.R.U.V.W.X.    ",
"      Y.Z.`. +.+++@+#+$+M.      ",
"          %+&+} *+=+-+          "};
