/* XPM */
static const char* const trash_xpm[] = {
"16 16 4 1",
" 	c None",
".	c #000000",
"+	c #D6D6D6",
"@	c #7F7F7F",
"                ",
"                ",
"     ......     ",
"   ..++++++..   ",
"  .++++..++++.  ",
"  .++++..++++.  ",
"   ..++++++..   ",
"   .@......@.   ",
"   .@.@@.@.@.   ",
"   .@.@@.@.@.   ",
"   .@.@@.@.@.   ",
"   .@.@@.@.@.   ",
"   .@.@@.@.@.   ",
"   .@.@@.@.@.   ",
"    ..@@.@@.    ",
"     ......     "};
