/* XPM */
static const char * unittest_xpm[] = {
"16 16 96 2",
"  	c None",
". 	c #66D866",
"+ 	c #67D667",
"@ 	c #64D464",
"# 	c #6ED76E",
"$ 	c #5CCA5C",
"% 	c #B2DBB2",
"& 	c #A9D7A9",
"* 	c #55C455",
"= 	c #51BF51",
"- 	c #9CD59C",
"; 	c #93D193",
"> 	c #4CBA4C",
", 	c #46B546",
"' 	c #86D086",
") 	c #7DCC7D",
"! 	c #43B243",
"~ 	c #DEC467",
"{ 	c #DEC057",
"] 	c #DEBF54",
"^ 	c #E0C56D",
"/ 	c #3BAD3B",
"( 	c #70CC70",
"_ 	c #67C967",
": 	c #3AAA3A",
"< 	c #D7AF4B",
"[ 	c #F3D68E",
"} 	c #F2D286",
"| 	c #D7AD45",
"1 	c #30A430",
"2 	c #5ACB5A",
"3 	c #51C751",
"4 	c #34A434",
"5 	c #D2A240",
"6 	c #F2D278",
"7 	c #F1CF70",
"8 	c #D2A13D",
"9 	c #289F28",
"0 	c #47CC47",
"a 	c #3EC83E",
"b 	c #119611",
"c 	c #CD9736",
"d 	c #F2D162",
"e 	c #F1CE5A",
"f 	c #CE9838",
"g 	c #239B23",
"h 	c #1DC81D",
"i 	c #00C000",
"j 	c #0C930C",
"k 	c #CD5F5F",
"l 	c #C54646",
"m 	c #C34343",
"n 	c #CD6666",
"o 	c #CA8E30",
"p 	c #F2D14C",
"q 	c #F1D049",
"r 	c #CB9035",
"s 	c #0F940F",
"t 	c #00CA00",
"u 	c #00C900",
"v 	c #129312",
"w 	c #B53333",
"x 	c #CC5959",
"y 	c #C85454",
"z 	c #B33434",
"A 	c #C68520",
"B 	c #F1CE1E",
"C 	c #F0C90D",
"D 	c #C68211",
"E 	c #149514",
"F 	c #00D300",
"G 	c #00D200",
"H 	c #189418",
"I 	c #AA0C0C",
"J 	c #CE0000",
"K 	c #CC0000",
"L 	c #A81010",
"M 	c #C37E13",
"N 	c #F2D000",
"O 	c #C47F17",
"P 	c #1A951A",
"Q 	c #00DD00",
"R 	c #00DC00",
"S 	c #1D941D",
"T 	c #932323",
"U 	c #A71313",
"V 	c #A61414",
"W 	c #912424",
"X 	c #AE5729",
"Y 	c #C27B1A",
"Z 	c #C27B1B",
"` 	c #AE562A",
" .	c #2E722E",
"..	c #1D911D",
"+.	c #1D901D",
"@.	c #2C6E2C",
"                                ",
"                                ",
"                        . + @ # ",
"                        $ % & * ",
"                        = - ; > ",
"                        , ' ) ! ",
"            ~ { ] ^     / ( _ : ",
"            < [ } |     1 2 3 4 ",
"            5 6 7 8     9 0 a b ",
"            c d e f     g h i j ",
"k l m n     o p q r     s t u v ",
"w x y z     A B C D     E F G H ",
"I J K L     M N N O     P Q R S ",
"T U V W     X Y Z `      ...+.@.",
"                                ",
"                                "};
