/* XPM */
static const char* const up_xpm[] = {
"16 16 11 1",
" 	c None",
".	c #383838",
"+	c #A6A6A6",
"@	c #404040",
"#	c #000000",
"$	c #BFBFBF",
"%	c #F7F7F7",
"&	c #E6E6E6",
"*	c #DEDEDE",
"=	c #777777",
"-	c #6F6F6F",
"                ",
"                ",
"       ..       ",
"      +@#+      ",
"      .$#.      ",
"     +@%.#+     ",
"     .$&+#.     ",
"    +@%**.#+    ",
"    .$&**+#.    ",
"   +@%****.#+   ",
"   .$&****+#.   ",
"  +@%******.#+  ",
"  .@=------.#.  ",
"  .##########.  ",
"                ",
"                "};
