/* XPM */
static const char* const wordwrap_xpm[] = {
"42 42 120 2",
"  	c None",
". 	c #000000",
"+ 	c #020202",
"@ 	c #949496",
"# 	c #B0B0B2",
"$ 	c #0B0B0B",
"% 	c #9F9FA1",
"& 	c #757577",
"* 	c #161616",
"= 	c #EDEDF0",
"- 	c #181818",
"; 	c #707072",
"> 	c #3B3B3C",
", 	c #575758",
"' 	c #EEEEF1",
") 	c #39393A",
"! 	c #070707",
"~ 	c #DBDBDE",
"{ 	c #9A9A9B",
"] 	c #010101",
"^ 	c #090909",
"/ 	c #E0E0E2",
"( 	c #A2A2A4",
"_ 	c #DAB6B9",
": 	c #141414",
"< 	c #ABABAD",
"[ 	c #717173",
"} 	c #020000",
"| 	c #921515",
"1 	c #E44748",
"2 	c #111111",
"3 	c #7D7D7F",
"4 	c #3C3C3D",
"5 	c #363636",
"6 	c #8F0000",
"7 	c #E00000",
"8 	c #E22F30",
"9 	c #474748",
"0 	c #B5B5B7",
"a 	c #050505",
"b 	c #D7D7DA",
"c 	c #6B0000",
"d 	c #E22728",
"e 	c #080808",
"f 	c #121212",
"g 	c #232323",
"h 	c #9D9D9F",
"i 	c #860000",
"j 	c #E11E1E",
"k 	c #B9B9BC",
"l 	c #535354",
"m 	c #262626",
"n 	c #6C6C6D",
"o 	c #E11516",
"p 	c #8A8A8B",
"q 	c #909092",
"r 	c #313132",
"s 	c #890000",
"t 	c #E00202",
"u 	c #565657",
"v 	c #CDCDCF",
"w 	c #030303",
"x 	c #D3D3D6",
"y 	c #9C0000",
"z 	c #111112",
"A 	c #1E1E1F",
"B 	c #1C1C1D",
"C 	c #99999B",
"D 	c #A70B0B",
"E 	c #C7C7C9",
"F 	c #5A5A5B",
"G 	c #686869",
"H 	c #BB1F1F",
"I 	c #959597",
"J 	c #979799",
"K 	c #2C2C2D",
"L 	c #CF3333",
"M 	c #060606",
"N 	c #646466",
"O 	c #CECED1",
"P 	c #E14445",
"Q 	c #969697",
"R 	c #414142",
"S 	c #D5D5D7",
"T 	c #616162",
"U 	c #0A0A0A",
"V 	c #646465",
"W 	c #838385",
"X 	c #E33A3B",
"Y 	c #A0A0A2",
"Z 	c #282828",
"` 	c #C5C5C8",
" .	c #E22425",
"..	c #0F0F0F",
"+.	c #5B5B5C",
"@.	c #D9D9DC",
"#.	c #3F3F40",
"$.	c #1C1C1C",
"%.	c #E11818",
"&.	c #2A2A2B",
"*.	c #131313",
"=.	c #040404",
"-.	c #5D5D5E",
";.	c #E00A0A",
">.	c #676768",
",.	c #A5A5A7",
"'.	c #DDDDDF",
").	c #161617",
"!.	c #DEDEE0",
"~.	c #131314",
"{.	c #787879",
"].	c #6F6F70",
"^.	c #BABABD",
"/.	c #0C0C0D",
"(.	c #EAEAED",
"_.	c #1D1D1D",
":.	c #1D1D1E",
"<.	c #202021",
"[.	c #E2E2E5",
"}.	c #626263",
"                                                                                    ",
"                                                                                    ",
"  . . . . .                         . . . . . .                       . . . . .     ",
"  . . . . . .                     . . . . . . .                     . . . . . .     ",
"  . . . . . +                     . . . . . . . @                   . . . . . . #   ",
"  $ . . . . . %                   . . . . . . . &                   . . . . . * =   ",
"  - . . . . . ;                 . . . . . . . . >                   . . . . . , '   ",
"    . . . . . )                 . . . . . . . . ! ~               . . . . . . { '   ",
"    ] . . . . ^ /               . . . . . . . . . (               . . . . . ] _ '   ",
"    : . . . . . <               . . . . . . . . . [               . . . . } | 1     ",
"    2 . . . . . 3             . . . . . 4 . . . . 5               . . . } 6 7 8     ",
"      . . . . . 9             . . . . . 0 ] . . . a b           . . . . c 7 7 d     ",
"      e . . . . f             . . . . * = g . . . . h           . . . . i 7 7 j     ",
"      - . . . . . k         . . . . . l ' m . . . . n           . . . . i 7 7 o     ",
"        . . . . . p         . . . . . q '   . . . . r           . . . . s 7 7 t     ",
"        . . . . . u         . . . . . v '   ] . . . w x       . . . . . y 7 7 7     ",
"        z . . . . A         . . . . B '     2 . . . . C       . . . . . D 7 7 7     ",
"        : . . . . . E     . . . . . F '     $ . . . . G       . . . . . H 7 7 7     ",
"          . . . . . I     . . . . . J '       . . . . K       . . . . . L 7 7 7     ",
"          M . . . . N     . . . . . x '       + . . . + O   . . . . . e P 7 7 7     ",
"          - . . . . K     . . . . g '         z . . . . Q   . . . . . R 1 7 7 7     ",
"            . . . . w S . . . . . T '         U . . . . V   . . . . . W X 7 7 7     ",
"            . . . . . Y . . . . . h '           . . . . Z n . . . . . `  .7 7 7     ",
"            ... . . . +.. . . . ] @.'           w . . . ] #.. . . . $.= %.7 7 7     ",
"            * . . . . a . . . . &.'             *.. . . . =.. . . . -.' ;.7 7 7     ",
"              . . . . . . . . . >.'             ^ . . . . . . . . . % ' 7 7 7 7     ",
"              =.. . . . . . . . ,.'               . . . . . . . . =.'.' 7 7 7 7     ",
"              ).. . . . . . . w !.'               =.. . . . . . . 5 '   7 7 7 7     ",
"                . . . . . . . r '                 ~.. . . . . . . {.'   7 7 7 7     ",
"                . . . . . . . ].'                   . . . . . . . ^.'   7 7 7       ",
"                /.. . . . . . < '                   . . . . . . f (.    7 7 7       ",
"                _.:.:.:.:.:.<.[.'                   *.:.:.:.:.:.}.'     7 7 7       ",
"                  ' ' ' ' ' ' '                       ' ' ' ' ' ' '     7 7 7       ",
"                  ' ' ' ' ' ' '           7           ' ' ' ' ' ' '     7 7 7       ",
"                                        7 7                             7 7 7       ",
"                                      7 7 7                             7 7 7       ",
"                                    7 7 7 7 7 7 7 7 7 7 7 7 7 7 7 7 7 7 7 7 7       ",
"                                  7 7 7 7 7 7 7 7 7 7 7 7 7 7 7 7 7 7 7 7 7 7       ",
"                                  7 7 7 7 7 7 7 7 7 7 7 7 7 7 7 7 7 7 7 7 7         ",
"                                    7 7 7 7                                         ",
"                                      7 7 7                                         ",
"                                      7 7 7                                         "};
