/* XPM */
static const char* const addfile_xpm[] = {
"16 16 5 1",
" 	c None",
".	c #000000",
"+	c #00FF00",
"@	c #7F7F7F",
"#	c #FFFFFF",
"          ...   ",
"          .+.   ",
"          .+.   ",
"     ......+....",
"    .@@.+++++++.",
"   .@@@....+....",
"   ..@@@@@.+.   ",
"   .#......+.   ",
"   .######...   ",
"   ..######..   ",
"   .#......#.   ",
"   .########.   ",
"    .######.    ",
"     ......     ",
"                ",
"                "};
