/* XPM */
static const char * addproject_xpm[] = {
"16 16 4 1",
" 	c None",
".	c #000000",
"+	c #FFFFFF",
"@	c #00FF00",
"     ........   ",
"    ..++++.@.   ",
"   .+.++++.@.   ",
"  .++.+....@....",
" .....+.@@@@@@@.",
" .+++++....@....",
" .++++++++.@.   ",
" .++++++++.@.   ",
" .++++++++...   ",
" .++++++++.     ",
" .++++++++.     ",
" .++++++++.     ",
" .++++++++.     ",
" .++++++++.     ",
" .++++++++.     ",
" ..........     "};
