/* XPM */
static const char* const addwatch_xpm[] = {
"16 16 82 1",
" 	c None",
".	c #000000",
"+	c #00FF00",
"@	c #262626",
"#	c #828282",
"$	c #D2D2D2",
"%	c #D7D7D7",
"&	c #A2A2A2",
"*	c #393939",
"=	c #8C8C8C",
"-	c #FAFAFA",
";	c #FFFFFF",
">	c #FCFCFC",
",	c #BABABA",
"'	c #E8E8E8",
")	c #FDFDFD",
"!	c #FBFBFB",
"~	c #F9F9F9",
"{	c #F1F1F1",
"]	c #333333",
"^	c #ABABAB",
"/	c #F3F3F3",
"(	c #EBEBEB",
"_	c #646464",
":	c #3B3939",
"<	c #EFEFEF",
"[	c #F6F6F6",
"}	c #F4F4F4",
"|	c #F0F0F0",
"1	c #363636",
"2	c #B0B0B0",
"3	c #E5E5E5",
"4	c #676767",
"5	c #424040",
"6	c #E6E6E6",
"7	c #848484",
"8	c #696969",
"9	c #E4E4E4",
"0	c #EAEAEA",
"a	c #343434",
"b	c #A9A9A9",
"c	c #A7A7A7",
"d	c #DEDEDE",
"e	c #C2C2C2",
"f	c #252525",
"g	c #101010",
"h	c #CCCCCC",
"i	c #E3E3E3",
"j	c #D3D3D3",
"k	c #282828",
"l	c #565656",
"m	c #070707",
"n	c #9B9B9B",
"o	c #D9D9D9",
"p	c #D4D4D4",
"q	c #4F4F4F",
"r	c #494646",
"s	c #535353",
"t	c #B1B1B1",
"u	c #DDDDDD",
"v	c #D0D0D0",
"w	c #818181",
"x	c #100F0F",
"y	c #2E2E2E",
"z	c #ADADAD",
"A	c #9A9A9A",
"B	c #CECECE",
"C	c #A4A4A4",
"D	c #0E0E0E",
"E	c #232323",
"F	c #4D4D4D",
"G	c #201F1F",
"H	c #4A4A4A",
"I	c #494949",
"J	c #434343",
"K	c #141313",
"L	c #5C5A5A",
"M	c #464444",
"N	c #494747",
"O	c #525050",
"P	c #3D3B3B",
"Q	c #4C4949",
"          ...   ",
"          .+.   ",
"          .+.   ",
"  .... ....+....",
" @#$%&*.+++++++.",
".=-;;>,....+....",
".')!-~{]^/.+.(_:",
".<[}/{|12(.+.345",
".67890'abc...d_5",
".efghijk=lmnopqr",
" sbtuvwxyzAjBCD ",
" .EFF*G  gHIJKL ",
"   MNO    PNQ   ",
"                ",
"                ",
"                "};
