/* XPM */
static const char* const breakpoint_xpm[] = {
"8 8 4 1",
" 	c None",
".	c #000000",
"+	c #FFFFFF",
"@	c #FF0000",
"  ....  ",
" .++++. ",
".++@@++.",
".+@@@@+.",
".+@@@@+.",
".++@@++.",
" .++++. ",
"  ....  "};
