/* XPM */
static char * changeconnect_xpm[] = {
"16 14 6 1",
" 	c None",
".	c #000000",
"+	c #7F7F7F",
"@	c #FF0000",
"#	c #FFFF00",
"$	c #FFFFFF",
"         .      ",
"      + .+      ",
"     +@@+  .    ",
"    +@@@@ .+    ",
"   +@@@@@@+     ",
"   +@@@@@@+     ",
"   +@@@@@+.     ",
"   +@@@@+.      ",
"  +#++++....... ",
" +#++...$$$$$$$.",
"+#++    .$$$$$. ",
" ++      .$$$.  ",
" +        .$.   ",
"           .    "};
