/* XPM */
static char * clock_xpm[] = {
"16 16 9 1",
" 	c None",
".	c #000000",
"+	c #595959",
"@	c #C0C0C0",
"#	c #070707",
"$	c #2F2F2F",
"%	c #8C8C8C",
"&	c #FFFFFF",
"*	c #F7F7F7",
"     ......     ",
"     ......     ",
"       ..       ",
"      ....      ",
"    .+@##$+.    ",
"   .%&&&...%.   ",
"   +.&&&..&&+   ",
"  .@&&&..&&.@.  ",
"  .#&&&..&&&*.  ",
"  .*&&&...&.*.  ",
"  .@.&&&...&@.  ",
"   +&&&&&.&.+   ",
"   .%.&&.&&%.   ",
"    .+@**@+.    ",
"      ....      ",
"                "};
