/* XPM */
static const char* const connect_xpm[] = {
"16 14 10 1",
" 	c None",
".	c #000000",
"+	c #FFFFC5",
"@	c #313031",
"#	c #FFFF00",
"$	c #312C31",
"%	c #C5C200",
"&	c #7F7F7F",
"*	c #FFFFFF",
"=	c #FF0000",
"          .+    ",
"       .+ @#$.+ ",
"        .#%#%#  ",
"      & .%+++%$ ",
"     &.+##+*+##+",
"    &===.%+++%. ",
"   &====.#%#%#  ",
"   &===.+=.#..+ ",
"   &=====&.+    ",
"   &====&.      ",
"  &#&&&&.       ",
" &#&&...        ",
"&#&&            ",
" &&             "};
