/* XPM */
static const char* const copy_xpm[] = {
"16 16 6 1",
" 	c None",
".	c #000000",
"+	c #FFFFFF",
"@	c #000082",
"#	c #3C3CFD",
"$	c #8B8BFD",
"......          ",
".++++..         ",
".+..+.+.        ",
".++++.++.       ",
".+..+.@@@@@     ",
".++++.@+++@@    ",
".+...+@+.+@#@   ",
".+++++@+++@$#@  ",
".+...+@+.+@+$#@ ",
".+++++@+++@@@@@@",
".+...+@+..+++++@",
"......@++++++++@",
"      @+......+@",
"      @++++++++@",
"      @+......+@",
"      @@@@@@@@@@"};
