/* XPM */
static char * cut_xpm[] = {
"16 16 4 1",
" 	c None",
".	c #000000",
"+	c #000055",
"@	c #000082",
"       .    .   ",
"       .    .   ",
"       .    .   ",
"       ..  .    ",
"        .  .    ",
"        ....    ",
"         ..     ",
"         ..     ",
"         ++     ",
"       @@@@@@   ",
"      @  @@  @  ",
"     @   @@   @ ",
"     @   @@   @ ",
"     @   @ @  @ ",
"     @  @   @@  ",
"      @@        "};
