/* XPM */
static const char * explainplan_xpm[] = {
"16 16 7 1",
" 	c None",
".	c #000000",
"+	c #5F5FFF",
"@	c #0000FF",
"#	c #87CEEB",
"$	c #000093",
"%	c #00008B",
"         ...    ",
"        .+++.   ",
"    @@@.+++++.  ",
"    @##.+++++.  ",
"    @#@.$++++.  ",
"    @#@@.$++.   ",
"    @%%%%.....  ",
"       .    ... ",
"       .     ...",
"   .........  ..",
"   .       .    ",
"@@@@@@@ @@@@@@@ ",
"@#####% @#####% ",
"@#@@@@% @#@@@@% ",
"@#@@@@% @#@@@@% ",
"@%%%%%% @%%%%%% "};
