/* XPM */
static const char* const forward_xpm[] = {
"16 16 14 1",
" 	c None",
".	c #383838",
"+	c #A6A6A6",
"@	c #000000",
"#	c #BFBFBF",
"$	c #404040",
"%	c #FFFFFF",
"&	c #808080",
"*	c #F7F7F7",
"=	c #EEEEEE",
"-	c #6F6F6F",
";	c #DEDEDE",
">	c #E6E6E6",
",	c #777777",
"                ",
"                ",
" ..+      +@@@. ",
" @#$.+    @%%&@ ",
" @%*#$.+  @%=-@ ",
" @%;>*#$.+@%=-@ ",
" @%;;;>*#$@%=-@ ",
" @%;;;;;>*@%=-@ ",
" @%;;;;;+.@%=-@ ",
" @%;;;+.@@@%=-@ ",
" @%;+.@@.+@%=-@ ",
" @#.@@.+  @%=-@ ",
" @@@.+    @&,.@ ",
" ..+      +@@@. ",
"                ",
"                "};
