/* XPM */
static const char * index_xpm[] = {
"16 16 2 1",
" 	c white",
".	c black",
"                ",
"                ",
"     .........  ",
"     .   .   .  ",
"     .........  ",
"  .  .   .   .  ",
"  .. .   .   .  ",
"  ............  ",
"  .. .   .   .  ",
"  .  .   .   .  ",
"     .........  ",
"     .   .   .  ",
"     .   .   .  ",
"     .........  ",
"                ",
"                "};
