/* XPM */
static const char* const kill_xpm[] = {
"16 16 7 1",
" 	c None",
".	c #000000",
"+	c #7F7F7F",
"@	c #FF0000",
"#	c #FFFF00",
"$	c #000055",
"%	c #000082",
"        .++++++ ",
"  .    ..@@@@@+ ",
"+++++++..@@@@@..",
"#######..@@@@@+ ",
"+++++++.@@@@@@..",
"   .. ..+@@@@@+ ",
"    .... ++++++ ",
"     ..         ",
"     $$         ",
"   %%%%%%       ",
"  %  %%  %      ",
" %   %%   %     ",
" %   %%   %     ",
" %   % %  %     ",
" %  %   %%      ",
"  %%            "};
