/* XPM */
static const char* const logging_xpm[] = {
"16 16 4 1",
" 	c None",
".	c #000000",
"+	c #8E8E8E",
"@	c #FFFFFF",
"             .. ",
"            .++.",
"           .@.+.",
"...........@@@. ",
".@@@@@@@@.@@@.  ",
".@.......@@@.   ",
".@@@@@@.@@@.    ",
".@.....@@@.     ",
".@@@@@..@.      ",
".@........      ",
".@@@@..@@.      ",
".@...@@@@.      ",
".@@@@@@@@.      ",
".@@@@@@@@.      ",
".@@@@@@@@.      ",
"..........      "};
