/* XPM */
static const char* const modfile_xpm[] = {
"16 16 5 1",
" 	c None",
".	c #000000",
"+	c #4C4C4C",
"@	c #7F7F7F",
"#	c #FFFFFF",
"            ..  ",
"           .++. ",
"          .++.+.",
"     ......+.++.",
"    .@@@@.++++. ",
"   .@@@..+++..  ",
"   ..@.++++..   ",
"   .#.+..+.#.   ",
"   .#.+..+.#.   ",
"   ..#.++.#..   ",
"   .#......#.   ",
"   .########.   ",
"    .######.    ",
"     ......     ",
"                ",
"                "};
