/* XPM */
static const char* const modtablespace_xpm[] = {
"16 16 5 1",
" 	c None",
".	c #000000",
"+	c #7F7F7F",
"@	c #4C4C4C",
"#	c #FFFFFF",
"     ...... ..  ",
"    .++++++.@@. ",
"   .++++++.@@.@.",
"   ..+++...@.@@.",
"   .#...+.@@@@. ",
"  .......@@@..+.",
" .++++.@@@@.++..",
".++++.@..@....#.",
"..+++.@..@.####.",
".#.....@@.####..",
".######.......#.",
"..######..#####.",
".#......#.####. ",
".########.....  ",
" .######.       ",
"  ......        "};
