/* XPM */
static char * movefile_xpm[] = {
"16 16 4 1",
" 	c None",
".	c #000000",
"+	c #FFFFFF",
"@	c #7F7F7F",
"   ..........   ",
"   .++++++++.   ",
"   .+.....+++.  ",
"   .+.  ...+..  ",
"   .+. .@@@.@@. ",
"  ..+...@@@@@@@.",
" .@...@@.@@@@@..",
".@@@@@@@@.....+.",
"..@@@@@@..+++++.",
".+......+.++++..",
".++++++++.....+.",
"..++++++..+++++.",
".+......+.++++. ",
".++++++++.....  ",
" .++++++.       ",
"  ......        "};
