/* XPM */
static const char* const new_xpm[] = {
"16 14 8 1",
" 	c None",
".	c #000000",
"+	c #FFFFC5",
"@	c #313031",
"#	c #FFFF00",
"$	c #312C31",
"%	c #C5C200",
"&	c #FFFFFF",
"                ",
"                ",
"       .+       ",
"    .+ @#$.+    ",
"     .#%#%#     ",
"     .%+++%$    ",
"   .+##+&+##+   ",
"     .%+++%.    ",
"     .#%#%#     ",
"    .+ .#..+    ",
"       .+       ",
"                ",
"                ",
"                "};
