/* XPM */
static const char* const next_xpm[] = {
"16 16 10 1",
" 	c None",
".	c #383838",
"+	c #A6A6A6",
"@	c #000000",
"#	c #BFBFBF",
"$	c #404040",
"%	c #FFFFFF",
"&	c #F7F7F7",
"*	c #DEDEDE",
"=	c #E6E6E6",
"                ",
"                ",
"  ..+           ",
"  @#$.+         ",
"  @%&#$.+       ",
"  @%*=&#$.+     ",
"  @%***=&#$.+   ",
"  @%*****=&#$.  ",
"  @%*****+.@@.  ",
"  @%***+.@@.+   ",
"  @%*+.@@.+     ",
"  @#.@@.+       ",
"  @@@.+         ",
"  ..+           ",
"                ",
"                "};
