/* XPM */
static char * noclock_xpm[] = {
"16 16 10 1",
" 	c None",
".	c #000000",
"+	c #FF0000",
"@	c #C0C0C0",
"#	c #070707",
"$	c #2F2F2F",
"%	c #FFFFFF",
"&	c #595959",
"*	c #8C8C8C",
"=	c #F7F7F7",
"     ......     ",
"     ......     ",
"       ..       ",
"    + ++++      ",
"   +++@##$+.    ",
"   .+++%...+.   ",
"   +.+++..%%+   ",
"  .+%%+++%%.+.  ",
"  .+%%%+++%%+.  ",
"  .+%%%.+++.+.  ",
"  .@+%%%.+++@.  ",
"   &%+%%%.+++   ",
"   .*.++++%+.   ",
"    .&@==@&.    ",
"      ....      ",
"                "};
