/* XPM */
static const char* const online_xpm[] = {
"16 16 4 1",
" 	c None",
".	c #FFFF00",
"+	c #000000",
"@	c #828282",
"                ",
"      .  .      ",
"                ",
"    . ++++ .    ",
"     +....+     ",
"  . +......+ .  ",
"    +......+    ",
"  . +......+ .  ",
"     +....+     ",
"   .  ++++  .   ",
"      +@@+      ",
"      ++++      ",
"      +@@+      ",
"       ++       ",
"                ",
"                "};
