/* XPM */
static const char* const prevbug_xpm[] = {
"16 16 6 1",
" 	c None",
".	c #000000",
"+	c #474747",
"@	c #00FF00",
"#	c #AA2323",
"$	c #777777",
"                ",
"                ",
"                ",
" .  +.  .+  .   ",
" .  .+ .........",
" +.  ...@@@@@@@.",
"  +..#+.........",
"    .+$$+.      ",
"    .+$$+.      ",
"....++$$++....  ",
"   .+$$$$+.     ",
"  ..++$$++..    ",
" .+.++++++.+.   ",
".+  ......  +.  ",
".            .  ",
".            .  "};
