/* XPM */
static const char* const readtablespace_xpm[] = {
"16 16 6 1",
" 	c None",
".	c #000000",
"+	c #7F7F7F",
"@	c #5F5FFF",
"#	c #FFFFFF",
"$	c #000093",
"     .......    ",
"    .+++.@@@.   ",
"   .+++.@@@@@.  ",
"   ..++.@@@@@.  ",
"   .#...$@@@@.. ",
"  .......$@@.++.",
" .++++++........",
".++++++++.......",
"..++++++..###...",
".#......#.####..",
".########.....#.",
"..######..#####.",
".#......#.####. ",
".########.....  ",
" .######.       ",
"  ......        "};
