/* XPM */
static const char* const rewind_xpm[] = {
"16 16 13 1",
" 	c None",
".	c #383838",
"+	c #000000",
"@	c #A6A6A6",
"#	c #FFFFFF",
"$	c #F7F7F7",
"%	c #808080",
"&	c #EEEEEE",
"*	c #404040",
"=	c #BFBFBF",
"-	c #E6E6E6",
";	c #DEDEDE",
">	c #777777",
"                ",
"                ",
" .++@       @.. ",
" +#$+     @.+%+ ",
" +#&+   @.*=$*+ ",
" +#&+ @.*=$-;++ ",
" +#&++*=$-;;;++ ",
" +#&+%$-;;;;;++ ",
" +#&++.@;;;;;++ ",
" +#&+.++.@;;;++ ",
" +#&+ @.++.@;++ ",
" +#&+   @.++.++ ",
" +%>+     @.+++ ",
" .++@       @.. ",
"                ",
"                "};
