/* XPM */
static const char* const saverecord_xpm[] = {
"16 16 4 1",
" 	c None",
".	c #000000",
"+	c #00FF00",
"@	c #FFFFFF",
"              ..",
"             .+.",
"            .++.",
"............++. ",
"@@@@.+.@@@.++.  ",
"..@..++.@.++.   ",
"@@@@@.++.++.    ",
".@...@.+++.     ",
"@@@@@@@.+..     ",
"@.@..@.@.@.     ",
"@@@@@@@@@@.     ",
"...@.@..@..     ",
"@@@@@@@@@@.     ",
"...@.@@..@.     ",
"@@@@@@@@@@.     ",
"@...@.@....     "};
