/* XPM */
static const char* const scansource_xpm[] = {
"16 16 5 1",
" 	c None",
".	c #000000",
"+	c #FFFFFF",
"@	c #5F5FFF",
"#	c #000093",
"       ......   ",
"      ..++++.   ",
"     .+.++++.   ",
"    .++.++++.   ",
"   .......++.   ",
"   .++.@@@.+.   ",
"   .+.@@@@@..   ",
"   .+.@@@@@..   ",
"   .+.#@@@@..   ",
"   .++.#@@.+.   ",
"   .+++......   ",
"   .++++++...   ",
"   .+++++++...  ",
"   .++++++++..  ",
"   .++++++++.   ",
"   ..........   "};
