/* XPM */
static const char * schema_xpm[] = {
"16 16 5 1",
" 	c white",
".	c blue",
"X	c sky blue",
"o	c dark blue",
"O	c black",
"                ",
"     .......    ",
"     .XXXXXo    ",
"     .X....o    ",
"     .X....o    ",
"     .oooooo    ",
"        O       ",
"        O       ",
"    OOOOOOOOO   ",
"    O       O   ",
" ....... .......",
" .XXXXXo .XXXXXo",
" .X....o .X....o",
" .X....o .X....o",
" .oooooo .oooooo",
"                "};
