/* XPM */
static const char* const search_xpm[] = {
"16 16 69 1",
" 	c None",
".	c #FFFFFF",
"+	c #272727",
"@	c #3F3F3F",
"#	c #0E0E0E",
"$	c #3F3F40",
"%	c #020202",
"&	c #CED8D9",
"*	c #D7E5E8",
"=	c #C1D4D6",
"-	c #000000",
";	c #7F8281",
">	c #E3F3F4",
",	c #DCF2F3",
"'	c #C5E9EE",
")	c #A8DEE5",
"!	c #ADE4E8",
"~	c #010101",
"{	c #E3F4F3",
"]	c #EAFBFA",
"^	c #DEF5F7",
"/	c #BEEDF1",
"(	c #90D9DF",
"_	c #6DC4CC",
":	c #BAECEF",
"<	c #101010",
"[	c #B6D9DD",
"}	c #D5F2F4",
"|	c #D0F1F5",
"1	c #AFE9F0",
"2	c #8FDFE8",
"3	c #71C6CE",
"4	c #79CAD4",
"5	c #B9DBE0",
"6	c #0B0B0B",
"7	c #D7E5E6",
"8	c #C3EAEC",
"9	c #B0EAEF",
"0	c #95E1EA",
"a	c #76D7E3",
"b	c #60C1CD",
"c	c #85CCD2",
"d	c #CDECF0",
"e	c #090909",
"f	c #A8D1D5",
"g	c #ADDDE2",
"h	c #8BD7E0",
"i	c #8ADBE5",
"j	c #78D8E3",
"k	c #53C9D4",
"l	c #43B2BC",
"m	c #7CC9CD",
"n	c #AED6DB",
"o	c #76CBD5",
"p	c #6FC4CE",
"q	c #68C6D1",
"r	c #3EAAB3",
"s	c #90D5DB",
"t	c #7AC4CB",
"u	c #89C8D0",
"v	c #00FFFF",
"w	c #B9DADE",
"x	c #CAEAED",
"y	c #ADD6DA",
"z	c #404041",
"A	c #070707",
"B	c #00C0C0",
"C	c #707071",
"D	c #C3C3C3",
"    +@#         ",
"  $%&*=-$       ",
" $;>,')!;$      ",
" ~{]^/(_:-      ",
"<[}^|123456     ",
"+78/90abcde     ",
"6fghijklmn-     ",
" -/opqlr/-      ",
" $;/stu/;-v     ",
"  $-wxy-zv--    ",
"    ~A~ B-CD-   ",
"         -zCD-  ",
"          -zCD- ",
"           -zCD-",
"            -zC-",
"             -- "};
