/* XPM */
static const char * sequence_xpm[] = {
"16 16 3 1",
" 	c white",
".	c black",
"X	c blue",
"                ",
"  .             ",
" ..  XXXXXXXX   ",
"  .         X   ",
"  .       X X X ",
" ...  ..   XXX  ",
"     .  .   X   ",
"        .       ",
"       .   ..   ",
"      .   .  .  ",
"     ....    .  ",
"           ..   ",
"             .  ",
"          .  .  ",
"           ..   ",
"                "};
