/* XPM */
static char * showdebug_xpm[] = {
"16 16 5 1",
" 	c None",
".	c #000000",
"+	c #474747",
"@	c #5F5FFF",
"#	c #000093",
"                ",
"                ",
"  .  +.  .+  .  ",
"  .  .+  +.  .  ",
"  +.  ....  .+  ",
"   +...@@@..+   ",
"     .@@@@@.    ",
"     .@@@@@.    ",
" .....#@@@@.... ",
"    .+.#@@..    ",
"   ..++......   ",
"  .+.+++++....  ",
" .+  .......... ",
" .          ... ",
" .            . ",
"                "};
