/* XPM */
static char * showhead_xpm[] = {
"16 16 4 1",
" 	c None",
".	c #000000",
"+	c #B2B2B2",
"@	c #545454",
"  ..      ...   ",
"  .+.    .@@@.  ",
"...++.   .@@@.  ",
".+++++.  .@@@.  ",
"...++.    .@.   ",
"  .+.   ..@@@.. ",
"  ..   .@@@@@@@.",
"       .@@@@@@@.",
"       .@@@@@@@.",
"       .@@@@@@@.",
"        .@@.@@. ",
"        .@@.@@. ",
"        .@@.@@. ",
"        .@@.@@. ",
"        .@@.@@. ",
"         .. ..  "};
