/* XPM */
static char * showbody_xpm[] = {
"16 16 4 1",
" 	c None",
".	c #000000",
"+	c #545454",
"@	c #B2B2B2",
"          ...   ",
"         .+++.  ",
"         .+++.  ",
"         .+++.  ",
"          .+.   ",
"  ..    ..+++.. ",
"  .@.  .+++++++.",
"...@@. .+++++++.",
".@@@@@..+++++++.",
"...@@. .+++++++.",
"  .@.   .++.++. ",
"  ..    .++.++. ",
"        .++.++. ",
"        .++.++. ",
"        .++.++. ",
"         .. ..  "};
