/* XPM */
static const char* const storageextents_xpm[] = {
"16 16 6 1",
" 	c None",
".	c #000000",
"+	c #5F5FFF",
"@	c #000093",
"#	c #7F7F7F",
"$	c #FFFFFF",
"                ",
"        ...     ",
"       .+++.    ",
"      .+++++.   ",
"      .+++++.   ",
"  .....@++++.   ",
" .#####.@++.    ",
".#######.....   ",
"..######.. ...  ",
".$......$.  ... ",
".$$$$$$$$.   .. ",
"..$$$$$$..      ",
".$......$.      ",
".$$$$$$$$.      ",
" .$$$$$$.       ",
"  ......        "};
