/* XPM */
static const char* const synonym_xpm[] = {
"16 11 32 1",
" 	c None",
".	c #FFFFFF",
"+	c #E57A7A",
"@	c #D42121",
"#	c #FBE9E9",
"$	c #CE0000",
"%	c #F0B1B1",
"&	c #F4C8C8",
"*	c #F6D3D3",
"=	c #E16464",
"-	c #D21616",
";	c #E88585",
">	c #D93737",
",	c #F2BCBC",
"'	c #EEA6A6",
")	c #120000",
"!	c #000000",
"~	c #980000",
"{	c #480000",
"]	c #630000",
"^	c #9A0B0B",
"/	c #C3B122",
"(	c #5A0000",
"_	c #D00B0B",
":	c #BAB122",
"<	c #E8851A",
"[	c #472C09",
"}	c #DF5959",
"|	c #DB430D",
"1	c #6F6F15",
"2	c #240000",
"3	c #D72C2C",
"................",
"...+@........#$%",
"..&$*........#=.",
"..-;.........>=.",
".=$$$$,'$$$$$-..",
"%$)!!!~${!!!]&..",
".=)!!!^'{!!!]&..",
".=/!!(_'$:!!]&..",
".=$<[$,.}|12+...",
"..&$@...._$3....",
"................"};
