/* XPM */
static const char * tablespace_xpm[] = {
"20 20 2 1",
" 	c white",
".	c black",
"                    ",
"                    ",
" ....    ....       ",
" ....    ....       ",
" ...      ...       ",
" ...      ...       ",
" ...      ... ...   ",
" ....    .........  ",
" .................. ",
" .................. ",
" .................. ",
" .................. ",
" .................  ",
" ............ ...   ",
" ............       ",
" ............       ",
" ............       ",
" ............       ",
"                    ",
"                    "};
