/* XPM */
static char * tocurrent_xpm[] = {
"16 16 4 1",
" 	c None",
".	c #000000",
"+	c #545454",
"@	c #FFFFFF",
"      ...       ",
"    ..+++..     ",
"   .@.+++.@.    ",
"  .@@.+++.@@.   ",
" .@@@@.+.@@@@.  ",
" .@@..+++..@@.  ",
".@@.+++++++.@@. ",
".@@.+++++++.@@. ",
".@@.+++++++.@@. ",
".@@.+++++++.@@. ",
".@@@.++.++.@@@. ",
" .@@.++.++.@@.  ",
" .@@.++.++.@@.  ",
"  .@.++.++.@.   ",
"   ..++.++..    ",
"     .....      "};
