/* XPM */
static const char* const todebug_xpm[] = {
"16 16 5 1",
" 	c None",
".	c #000000",
"+	c #474747",
"@	c #AA2323",
"#	c #777777",
"                ",
"                ",
"  .  +.  .+  .  ",
"  .  .+  +.  .  ",
"  +.  ....  .+  ",
"   +..@++@..+   ",
"     .+##+.     ",
"     .+##+.     ",
" ....++##++.... ",
"    .+####+.    ",
"   ..++##++..   ",
"  .+.++++++.+.  ",
" .+  ......  +. ",
" .            . ",
" .            . ",
"                "};
