/* XPM */
static const char* const toinvalid_xpm[] = {
"16 16 74 1",
" 	c None",
".	c #929253",
"+	c #767611",
"@	c #B7B79F",
"#	c #FDFDAA",
"$	c #EFEF12",
"%	c #888800",
"&	c #B5B59D",
"*	c #FDFDDB",
"=	c #F7F758",
"-	c #969600",
";	c #B3B39A",
">	c #FCFCDB",
",	c #F7F763",
"'	c #989804",
")	c #B0B096",
"!	c #FDFDDD",
"~	c #F8F865",
"{	c #909004",
"]	c #000000",
"^	c #ADAD7F",
"/	c #FDFDB7",
"(	c #FFFF32",
"_	c #F9F904",
":	c #D8D800",
"<	c #D5D500",
"[	c #CFCF00",
"}	c #7F7F7F",
"|	c #D2D264",
"1	c #D5D51C",
"2	c #E6E617",
"3	c #FFFF2C",
"4	c #FFFF1B",
"5	c #FAFA00",
"6	c #ADAD00",
"7	c #56561D",
"8	c #D4D4C0",
"9	c #FFFFC7",
"0	c #FBFB37",
"a	c #B2B200",
"b	c #D7D7C5",
"c	c #FFFFDF",
"d	c #FFFF83",
"e	c #ABAB09",
"f	c #D6D6C1",
"g	c #FFFFDE",
"h	c #FFFF87",
"i	c #FFFF08",
"j	c #C2C200",
"k	c #B6B600",
"l	c #696901",
"m	c #1F1F1F",
"n	c #3F3F3F",
"o	c #5F5F5F",
"p	c #C7C793",
"q	c #F1F187",
"r	c #F1F14E",
"s	c #F7F70D",
"t	c #FFFF02",
"u	c #FDFD00",
"v	c #BBBB00",
"w	c #9F9F9F",
"x	c #BFBFBF",
"y	c #DFDFDF",
"z	c #949463",
"A	c #FEFE4C",
"B	c #BCBC00",
"C	c #7D7D51",
"D	c #F7F7A2",
"E	c #BDBD0A",
"F	c #D1D19E",
"G	c #BEBE14",
"H	c #979775",
"I	c #BFBF4B",
"           .+   ",
"          @#$%  ",
"         &*=-   ",
"        ;>,'    ",
"       )!~{     ",
"  ]]]]^/(_:<<[  ",
" ]}}}}|1<23456  ",
"]}}}}}}}7890a   ",
"]]}}}}}}bcde    ",
"]]]]]]]fghijkl  ",
"]]mno}pqrstuv   ",
"]]mno}wxyzAB    ",
"]]mno}wxCDE     ",
"]]mno}wxFG      ",
" ]mno}wHI       ",
"  ]]]]]]        "};
