/* XPM */
static char * tora_xpm[] = {
"32 32 26 1",
" 	c None",
".	c #ACC8E3",
"+	c #75A5D1",
"@	c #4C89C3",
"#	c #226EB5",
"$	c #5992C8",
"%	c #90B6DA",
"&	c #E3EDF6",
"*	c #3E80BE",
"=	c #3077BA",
"-	c #91B7DA",
";	c #75A4D1",
">	c #4B89C3",
",	c #ACC9E3",
"'	c #FFFFFF",
")	c #C8DBEC",
"!	c #C8DBED",
"~	c #D6E4F1",
"{	c #BAD2E8",
"]	c #83AED6",
"^	c #F1F6FA",
"/	c #679BCC",
"(	c #83ADD5",
"_	c #9EBFDE",
":	c #D5E4F1",
"<	c #9EC0DF",
"                                ",
"                                ",
"           .+@###$%&            ",
"         .*#=$--;>##+&          ",
"        +#*,''''''&;#=)         ",
"       @#;''''''!,''~=#{        ",
"      ]#-''!,&''!&~''^*=&       ",
"     )#/'',='~,&{'''''~#$       ",
"     $=^'',-'''~&''''''-#)      ",
"    &#(''~#~''''',!''''^#+      ",
"    _#~''{,'''''&##*{'''/=      ",
"    ]#'''^{{'''''&$##{''-#&     ",
"    $$'''''^,!'''^=*{>''!#)     ",
"    $$''''''~-'''-#!'&''!#)     ",
"    /*''''''(#{'^=*''''',#:     ",
"    %#^''''~#*''<#,'''''(#      ",
"    )#,'''',#/''**''''''*$      ",
"     *>'''''!^',#<'''''{#.      ",
"     %#<'''''''*=^''''^*=       ",
"      @=~''''',#-''''';#{       ",
"      .==~''''*#&'''';#+        ",
"     :^:=#-''&$;'''~$#+         ",
"     .''&$#=({~^!,$#=%          ",
"    &=@^'']$######=]&           ",
"    @##*{{   ).%):              ",
"   +###=                        ",
"  _####:                        ",
" )####.                         ",
"+=###]                          ",
"####$                           ",
"###*                            ",
"###                             "};
