/* XPM */
static char * tora_xpm[] = {
"32 32 26 1",
" 	c None",
".	c #F1F6FA",
"+	c #5992C8",
"@	c #E3EDF6",
"#	c #3E80BE",
"$	c #ACC9E3",
"%	c #D6E4F1",
"&	c #BAD2E8",
"*	c #C8DBED",
"=	c #91B7DA",
"-	c #C8DBEC",
";	c #75A5D1",
">	c #ACC8E3",
",	c #75A4D1",
"'	c #4C89C3",
")	c #679BCC",
"!	c #83AED6",
"~	c #D5E4F1",
"{	c #83ADD5",
"]	c #4B89C3",
"^	c #9EC0DF",
"/	c #9EBFDE",
"(	c #3077BA",
"_	c #226EB5",
":	c #90B6DA",
"<	c #FFFFFF",
"+::::::::::::::::::::::::::::::+",
":<<<<<<<<<<<<<<<<<<<<<<<<<<<<<<:",
":<<<<<<<<<<>;'___+:@<<<<<<<<<<<:",
":<<<<<<<<>#_(+==,]__;@<<<<<<<<<:",
":<<<<<<.;_#$<<<<<<@,_(-<<<<<<<<:",
":<<<<<<'_,<<<<<<*$<<%(_&<<<<<<<:",
":<<<<<!_=<<*$@<<*@%<<.#(@<<<<<<:",
":<<<<-_)<<$(<%$@&<<<<<%_+<<<<<<:",
":<<<<+(.<<$=<<<%@<<<<<<=_-<<<<<:",
":<<<@_{<<%_%<<<<<$*<<<<._;<<<<<:",
":<<</_%<<&$<<<<<@__#&<<<)(<<<<<:",
":<<<!_<<<.&&<<<<<@+__&<<=_@<<<<:",
":<<<++<<<<<.$*<<<.(#&]<<*_-<<<<:",
":<<<++<<<<<<%=<<<=_*<@<<*_-<<<<:",
":<<<)#<<<<<<{_&<.(#<<<<<$_~<<<<:",
":<<<:_.<<<<%_#<<^_$<<<<<{_<<<<<:",
":<<<-_$<<<<$_)<<##<<<<<<#+<<<<<:",
":<<<<#]<<<<<*.<$_^<<<<<&_><<<<<:",
":<<<<:_^<<<<<<<#(.<<<<.#(.<<<<<:",
":<<<<<'(%<<<<<$_=<<<<<,_&<<<<<<:",
":<<<<<>((%<<<<#_@<<<<,_;<<<<<<<:",
":<<<<~.~(_=<<@+,<<<%+_;<<<<<<<<:",
":<<<<><<@+_({&%.*$+_(:<<<<<<<<<:",
":<<<@('.<<!+______(!@<<<<<<<<<<:",
":<<.'__#&&<<.->:-~<<<<<<<<<<<<<:",
":<<;___(.<<<<<<<<<<<<<<<<<<<<<<:",
":</____~<<<<<<<<<<<<<<<<<<<<<<<:",
":-____><<<<<<<<<<<<<<<<<<<<<<<<:",
";(___!<<<<<<<<<<<<<<<<<<<<<<<<<:",
"____+<<<<<<<<<<<<<<<<<<<<<<<<<<:",
"___#.<<<<<<<<<<<<<<<<<<<<<<<<<<:",
"___):::::::::::::::::::::::::::+"};
