/* XPM */
static char * tora_xpm[] = {
"59 59 195 2",
"  	c None",
". 	c #4B4B4B",
"+ 	c #262626",
"@ 	c #000000",
"# 	c #0B0B0B",
"$ 	c #2F2F2F",
"% 	c #313131",
"& 	c #030303",
"* 	c #636363",
"= 	c #767676",
"- 	c #949494",
"; 	c #AFAFAF",
"> 	c #111111",
", 	c #1F1F1F",
"' 	c #828282",
") 	c #ACACAC",
"! 	c #C5C5C5",
"~ 	c #B6B6B6",
"{ 	c #646464",
"] 	c #323232",
"^ 	c #929292",
"/ 	c #555555",
"( 	c #5D5D5D",
"_ 	c #525252",
": 	c #868686",
"< 	c #7F7F7F",
"[ 	c #BBBBBB",
"} 	c #FFFFFF",
"| 	c #9A9A9A",
"1 	c #9E9E9E",
"2 	c #A3A3A3",
"3 	c #181818",
"4 	c #3D3D3D",
"5 	c #797979",
"6 	c #707070",
"7 	c #9F9F9F",
"8 	c #AAAAAA",
"9 	c #B2B2B2",
"0 	c #B9B9B9",
"a 	c #BABABA",
"b 	c #B8B8B8",
"c 	c #B5B5B5",
"d 	c #B0B0B0",
"e 	c #A7A7A7",
"f 	c #878787",
"g 	c #606060",
"h 	c #424242",
"i 	c #656565",
"j 	c #AEAEAE",
"k 	c #A9A9A9",
"l 	c #B7B7B7",
"m 	c #B4B4B4",
"n 	c #BCBCBC",
"o 	c #BDBDBD",
"p 	c #BEBEBE",
"q 	c #A6A6A6",
"r 	c #B3B3B3",
"s 	c #ADADAD",
"t 	c #A0A0A0",
"u 	c #8F8F8F",
"v 	c #818181",
"w 	c #757575",
"x 	c #6D6D6D",
"y 	c #686868",
"z 	c #666666",
"A 	c #6A6A6A",
"B 	c #717171",
"C 	c #999999",
"D 	c #B1B1B1",
"E 	c #6E6E6E",
"F 	c #7D7D7D",
"G 	c #434343",
"H 	c #909090",
"I 	c #8D8D8D",
"J 	c #727272",
"K 	c #2C2C2C",
"L 	c #202020",
"M 	c #444444",
"N 	c #595959",
"O 	c #515151",
"P 	c #060606",
"Q 	c #0E0E0E",
"R 	c #3F3F3F",
"S 	c #3B3B3B",
"T 	c #4E4E4E",
"U 	c #1C1C1C",
"V 	c #1B1B1B",
"W 	c #464646",
"X 	c #5E5E5E",
"Y 	c #3E3E3E",
"Z 	c #484848",
"` 	c #575757",
" .	c #141414",
"..	c #5A5A5A",
"+.	c #9D9D9D",
"@.	c #7B7B7B",
"#.	c #303030",
"$.	c #020202",
"%.	c #0C0C0C",
"&.	c #040404",
"*.	c #010101",
"=.	c #070707",
"-.	c #2D2D2D",
";.	c #505050",
">.	c #626262",
",.	c #343434",
"'.	c #252525",
").	c #242424",
"!.	c #171717",
"~.	c #4D4D4D",
"{.	c #898989",
"].	c #5C5C5C",
"^.	c #616161",
"/.	c #272727",
"(.	c #A2A2A2",
"_.	c #979797",
":.	c #8E8E8E",
"<.	c #919191",
"[.	c #333333",
"}.	c #969696",
"|.	c #1A1A1A",
"1.	c #191919",
"2.	c #808080",
"3.	c #0000FF",
"4.	c #838383",
"5.	c #6F6F6F",
"6.	c #3C3C3C",
"7.	c #0D0D0D",
"8.	c #BFBFBF",
"9.	c #7E7E7E",
"0.	c #151515",
"a.	c #00007D",
"b.	c #CCCCCC",
"c.	c #CBCBCB",
"d.	c #5F5F5F",
"e.	c #8A8A8A",
"f.	c #00005F",
"g.	c #696969",
"h.	c #585858",
"i.	c #2A2A2A",
"j.	c #8B8B8B",
"k.	c #676767",
"l.	c #939393",
"m.	c #7C7C7C",
"n.	c #7070FF",
"o.	c #565656",
"p.	c #363636",
"q.	c #414141",
"r.	c #212121",
"s.	c #6C6C6C",
"t.	c #5B5B5B",
"u.	c #2E2E2E",
"v.	c #858585",
"w.	c #4F4F4F",
"x.	c #161616",
"y.	c #9C9C9C",
"z.	c #7A7A7A",
"A.	c #545454",
"B.	c #101010",
"C.	c #404040",
"D.	c #787878",
"E.	c #747474",
"F.	c #4A4A4A",
"G.	c #1E1E1E",
"H.	c #535353",
"I.	c #959595",
"J.	c #848484",
"K.	c #090909",
"L.	c #292929",
"M.	c #454545",
"N.	c #888888",
"O.	c #9B9B9B",
"P.	c #A5A5A5",
"Q.	c #ABABAB",
"R.	c #383838",
"S.	c #8C8C8C",
"T.	c #6B6B6B",
"U.	c #3A3A3A",
"V.	c #494949",
"W.	c #A1A1A1",
"X.	c #DCDCDC",
"Y.	c #474747",
"Z.	c #D1D1D1",
"`.	c #E2E2E2",
" +	c #D8D8D8",
".+	c #E1E1E1",
"++	c #080808",
"@+	c #D7D7D7",
"#+	c #FDFDFD",
"$+	c #E9E9E9",
"%+	c #C9C9C9",
"&+	c #A8A8A8",
"*+	c #C8C8C8",
"=+	c #D6D6D6",
"-+	c #E8E8E8",
"                                                                      . + @ @ @ # $                                   ",
"                                                                    . % & @ @ @ @ @ $                   . + # $       ",
"                                                                . + & % . * * * $ @ @ $             . + & & @ @ $     ",
"                                                            . + & & + . * * = - ; * > ,           . % & + . $ > ,     ",
"                                                          . % & + . * * * = ' ) ! ~ { ]         . % % .       { ]     ",
"                                                      . + & % . * * * * = ' ' = ^ ~ -           / ( .                 ",
"                                                  . + & & + . * * * * * { _ =     ^ : =       . ( / =                 ",
"                                                . % & + . * * * * * * * , > $                 / ( . { _       . + # $ ",
"                                                / ( . * * * * = : ^ * * $ @ @ $             . ( / * , @ # $ . % & @ , ",
"                                                < < * * * * = ' [ ~ ^ * * $ > ,         . + & % . * $ # @ @ & % * _ } ",
"                                                | 1 ^ * * = ' ' 2 ~ ~ ^ * * , > $     . % & + . * * * * $ # + * ' ' = ",
"                                                ^ ~ ~ ^ = ' ' =   ^ 1 | * * $ @ @ 3 + & % . * * * * * * * = - ) ' =   ",
"                                                  ^ ~ ! ) ' =       | 1 ^ * * $ @ @ & + . * * * = - [ [ [ ) ) - =     ",
"                                                    ^ ; - =         ^ ~ ~ ^ * * $ 4 . * * * = - ) ) [ [ [ - =         ",
"                                                                      ^ ~ ~ ^ * * * * * * = ' ) - =                   ",
"                                                                        5 < 6 * * * * = - ) ' =                       ",
"                            7 8 9 ~ 0 a a a a a b c d e | f g h i j . + & % . * * * * { ' - =                         ",
"                  k 0 l m c l b 0 a a a [ [ [ [ n n o p . + @ # $ . % & + . * * * * * , > $                           ",
"            q r s m 0 ; t u v w x y i { * { { z A B . + & & @ @ @ & % . * * * * * * * $ @ @ $                         ",
"        C ) D q : E { * * * * * * * * * * * * * * . % & + . * $ # + . * * * = - ; ^ * * $ > ,                         ",
"      - 7 f E * * * * * * * * * * * * * * * * * * / ( . = - ; ^ * * * * = - ) ) ! ~ ^ * * , > $                       ",
"      F B * * * * * * * * * * * * * * * * * * * * < < = ' ) ! ! ; ^ * = ' ) - = ^ ~ ~ ^ * $ @ @ $                     ",
"    G A * * * * * * * * * * * * * * * * * * * * * | ~ ) ' = ^ ; ~ | * { _ = < H I ^ 1 | * * $ @ @ $                   ",
"J K L M * * * * * * * * * * * * * * * * * * * * * ^ ; - = * * . ( / * ] ] * N x y O | 1 ^ * * $ @ @ $                 ",
"J K P Q R * * * * * * * * * * * * * * * * * * * * . + # $ * . % % . = _ * _ S h O O ^ ~ ~ ^ * * $ > ,                 ",
"J T U @ @ V W * * * X O G 4 4 Y Z ` g * * * * * * / % @ @ @ & % . = ' ' =  ., R ..O   ^ ~ ~ ^ * = _                   ",
"J = +.@.#.@ @ $.W Y U %.&.@ @ *.=.> -.;.>.* * * * | 1 * # @ + . = ' ' = & ,.@.0 ^ O     ^ 1 | = ' ' =                 ",
"J { ' ! l = ] '.).&.!.~.I j b ) {.. L V Y ].>.^.X ^ ~ ~ ^ * = - ) ' = /.= k ) ~ | O       | ~ ) ' =                   ",
"J ] ] ^ ; ! F U !.( (.l e _.:.H C (.<...[.Y #.@ @ @ ^ ~ ! [ ) ) - = m m ) - = < < O       ^ ; - =                     ",
"J ] ] }.}.i |.1.2.~ +.3.3.3.3.3.3.3.4.u 5.h G 6.@ & 7.^ ; [ - = 8.) [ - = }.}.< < O                                   ",
"J ] ] }.9.#.0.J ) I a.3.3.3.3.3.3.3.3.3.F z T _ +.! b.c.) [ [ [ - = }.}.}.}.}.< < O                                   ",
"d.] ] }.N |.O 7 e.f.a.a.a.a.3.3.3.3.3.3.3.g.d.h.5.[ [ - = }.}.}.}.}.}.}.}.}.}.< < O                                   ",
"..] ] }.S i.j.<.f.f.f.f.f.f.a.a.a.a.a.a.a.a.N k.( }.}.}.}.}.}.}.}.}.}.}.}.}.}.< < O                                   ",
"* ] ] }.#.T l.m.a.a.f.f.f.f.f.f.f.f.f.f.f.f.. g.z }.}.}.}.}.}.}.}.}.}.}.}.}.}.< < O                                   ",
"* ] ] }.-.^.e.n.n.n.a.a.a.a.f.f.f.f.f.f.f.f.h o.J }.}.}.}.}.}.}.}.}.}.}.}.}.}.< < O                                   ",
"* ] ] }.#.y ' n.n.n.n.n.n.n.a.a.a.a.a.a.a.a.S . @.}.}.}.}.}.}.}.}.}.}.}.}.}.}.< < O                                   ",
"= ] ] }.p.g.5 n.n.n.n.n.n.n.n.n.n.n.n.n.n.n.[.. ' }.}.}.}.}.}.}.}.}.}.}.}.}.}.< < O                                   ",
"@.] ] }.q.z B n.n.n.n.n.n.n.n.n.n.n.n.n.n.n.i.` f }.}.}.}.}.}.}.}.}.}.}.}.}.}.< < O                                   ",
"J ] ] }.O h.g.n.n.n.n.n.n.n.n.n.n.n.n.n.n.Z r.s.{.}.}.}.}.}.}.}.}.}.}.}.}.}.}.< < O                                   ",
"J ] ] }.g O * t.n.n.n.n.n.n.n.n.n.n.n.n.n.u.K {.v.}.}.}.}.}.}.}.}.}.}.}.}.}.}.< < O                                   ",
"J ] ] }.: t.* w./ n.n.n.n.n.n.n.n.n.n.n.R x.z y.z.}.}.}.}.}.}.}.}.}.}.}.}.}.}.< < O                                   ",
"J ] ] }.: A z A.6.O n.n.n.n.n.n.n.n.n.4 B.C.| <.e.}.}.}.}.}.}.}.}.}.}.}.}.}.}.< < O                                   ",
"J ] ] }.- = D.E.F./.h n.n.n.n.n.n.n.K P 0.A :.v - }.}.}.}.}.}.}.}.}.}.}.}.}.}.< < O                                   ",
"J ] ] }.}.}.D.< ' A.G.3 $ q.W 6.'.=.> -.H.;.M / u }.}.}.}.}.}.}.}.}.}.}.}.}.}.< < O                                   ",
"J ] ] }.}.}.I.9.J._.4.t.i.K.@ K.L.N I t @.{ M ,.o.}.}.}.}.}.}.}.}.}.}.}.}.}.}.< < O                                   ",
"J ] ] }.}.}.}.}.5.D.C ; m b [ o 8.8.d _...{ * M.% F.I.}.}.}.}.}.}.}.}.}.}.}.}.< < O                                   ",
"J ] ] }.}.}.}.}.}.}.{.N.O.P.Q.k (.^ 2.<.' @.5 i M.% A.I }.}.}.}.}.}.}.}.}.}.}.< < O                                   ",
"J ] ] }.}.}.}.}.}.}.}.}.}.}.}.}.}.}.}.}.j.e.f z g W [.;.}.}.}.}.}.}.}.}.}.}.}.< < O                                   ",
"J ] ] }.}.}.}.}.}.}.}.}.}.}.}.}.}.}.}.}.}.}.<.* x * W R.A.}.}.}.}.}.}.}.}.}.}.< < O                                   ",
"J ] ] }.}.}.}.}.}.}.}.}.}.}.}.}.}.}.}.}.}.}.{.F < E d.h.h ^.:.}.}.}.}.}.}.}.}.< < O                                   ",
"J ] ] }.}.}.}.}.}.}.}.}.}.}.}.}.}.}.}.}.}.}.}.S.9.v E _ ).|.F.}.}.}.}.}.}.}.}.< < O                                   ",
"D./.G.M }.}.}.}.}.}.}.}.}.}.}.}.}.}.}.}.}.}.}.}.N.9.< E >.o.h.' }.}.}.}.}.}./ T.k.N                                   ",
"d 4 & 7.R }.}.}.}.}.}.}.}.}.}.}.}.}.}.}.}.}.}.}.}.I F < 5.N q.C.9.}.}.}.}._ R.R N O.                                  ",
"  N.U.@ @ V W }.}.}.}.}.}.}.}.}.}.}.}.}.}.}.}.}.}.}.j.< v 5.O d.z.}.}.o.p. ., V.5                                     ",
"    W.W @ @ @ $., V.^.}.}.}.}.}.}.}.}.}.}.}.}.}.}.}.}.e.F N.I }.5.R.B.@ & U F.{.                                      ",
"      X.N.W *.@ @ @ @ @ 7.'.U.V.A.].g }.}.}.}.^.X h.w.h C.: c Q.G $.@ B.Y.w Z.                                        ",
"          `.; v.C.*.@ @ @ @ @ @ @ @ @ @ @ @ @ @ @ @ @ @ @ @ @ @ 7.W @.k  +                                            ",
"                .+p +.D.6.'. .++@ @ @ @ @ @ @ @ @ & 7.U #.F.A f a @+                                                  ",
"                      #+$+ +%+p ~ d s k &+&+k ) d c o *+=+-+#+                                                        "};
