/* XPM */
static const char* const tora_xpm[] = {
"32 32 21 1",
" 	c None",
".	c #75A5D1",
"+	c #4C89C3",
"@	c #226EB5",
"#	c #5992C8",
"$	c #3E80BE",
"%	c #3077BA",
"&	c #91B7DA",
"*	c #75A4D1",
"=	c #4B89C3",
"-	c #ACC9E3",
";	c #FFFFFF",
">	c #E3EDF6",
",	c #C8DBED",
"'	c #D6E4F1",
")	c #F1F6FA",
"!	c #679BCC",
"~	c #BAD2E8",
"{	c #83ADD5",
"]	c #83AED6",
"^	c #9EC0DF",
"                                ",
"                                ",
"            .+@@@#              ",
"          $@%#&&*=@@            ",
"         @$-;;;;;;>*@%          ",
"       +@*;;;;;;,-;;'%@         ",
"       @&;;,->;;,>';;)$%        ",
"      @!;;-%;'->~;;;;;'@        ",
"     #%);;-&;;;'>;;;;;;&@       ",
"     @{;;'@';;;;;-,;;;;)@       ",
"     @';;~-;;;;;>@@$~;;;!%      ",
"    ]@;;;)~~;;;;;>#@@~;;&@      ",
"    ##;;;;;)-,;;;)%$~=;;,@      ",
"    ##;;;;;;'&;;;&@,;>;;,@      ",
"    !$;;;;;;{@~;)%$;;;;;-@      ",
"     @);;;;'@$;;^@-;;;;;{@      ",
"     @-;;;;-@!;;$$;;;;;;$#      ",
"     $=;;;;;,);-@^;;;;;~@       ",
"      @^;;;;;;;$%);;;;)$%       ",
"      +%';;;;;-@&;;;;;*@        ",
"       %%';;;;$@>;;;;*@         ",
"        %@&;;>#*;;;'#@          ",
"       ;>#@%{~'),-#@%           ",
"      +);;]#@@@@@@%             ",
"     @@$~~                      ",
"    @@@%                        ",
"   @@@@                         ",
"  @@@@                          ",
" %@@@                           ",
"@@@@                            ",
"@@@$                            ",
"@@@                             "};
