/* XPM */
static const char* const toscript_xpm[] = {
"16 16 10 1",
" 	c None",
".	c #000000",
"+	c #FFFFFF",
"@	c #7F7F7F",
"#	c #DFDFDF",
"$	c #9F9F9F",
"%	c #BFBFBF",
"&	c #1F1F1F",
"*	c #3F3F3F",
"=	c #5F5F5F",
"      .....     ",
"     .+++++.    ",
"    .++...+.    ",
"     .. ..+...  ",
"       .+++.@@. ",
"  ......+..@@@@.",
" .@@@@@.+.@@@@..",
".@@@@.........#.",
"..@@@.+++++.$%#.",
"............$%#.",
"..&*=@$.+.=@$%#.",
"..&*=.......$%#.",
"..&*=.+++++.$%. ",
"..&*=.........  ",
" .&*=@$%.       ",
"  ......        "};
