/* XPM */
static const char* const tosecurity_xpm[] = {
"16 16 6 1",
" 	c None",
".	c #000000",
"+	c #999999",
"@	c #4C4C4C",
"#	c #BCBCBC",
"$	c #707070",
"                ",
"      ....      ",
"     .++++.     ",
"    .++..++.    ",
"    .+.  .+.    ",
"   ..+....+..   ",
"  .@.+.@@.+.@.  ",
"  ............  ",
"  .##$$$$$$@@.  ",
"  .##$$$$$$@@.  ",
"  .##$$$$$$@@.  ",
"  .##$$$$$$@@.  ",
"  .##$$$$$$@@.  ",
"  .##$$$$$$@@.  ",
"  .##$$$$$$@@.  ",
"   ..........   "};
