/* XPM */
static const char* const tosqledit_xpm[] = {
"16 16 11 1",
" 	c None",
".	c #000000",
"+	c #8E8E8E",
"@	c #FFFFFF",
"#	c #7F7F7F",
"$	c #1F1F1F",
"%	c #3F3F3F",
"&	c #5F5F5F",
"*	c #BFBFBF",
"=	c #DFDFDF",
"-	c #9F9F9F",
"             .. ",
"            .++.",
"           .@.+.",
"          .@@@. ",
"         .@@@.  ",
"  .......@@@.   ",
" .#####.@@@.    ",
".#####.@@@.     ",
"..####..@.      ",
"..........      ",
"..$%&..*=.      ",
"..$%&#-*=.      ",
"..$%&#-*=.      ",
"..$%&#-*=.      ",
" .$%&#-*.       ",
"  ......        "};
