/* XPM */
static const char* const totuning_xpm[] = {
"16 16 12 1",
" 	c None",
".	c #000000",
"+	c #FFBF00",
"@	c #CCCCCC",
"#	c #7F7F7F",
"$	c #FFFFFF",
"%	c #1F1F1F",
"&	c #3F3F3F",
"*	c #5F5F5F",
"=	c #9F9F9F",
"-	c #DFDFDF",
";	c #BFBFBF",
"             .. ",
"            .++.",
"           .+++.",
"          .+++. ",
"          .++.  ",
"  ...... .@..   ",
" .######.@.     ",
".#####..@.      ",
"..###.$$..      ",
".......$..      ",
"..%&*#=.-.      ",
"..%&*#=;-.      ",
"..%&*#=;-.      ",
"..%&*#=;-.      ",
" .%&*#=;.       ",
"  ......        "};
