/* XPM */
static const char* const tree_xpm[] = {
"16 16 4 1",
" 	c None",
".	c #E69500",
"+	c #AC7100",
"@	c #000000",
" ....+          ",
" ....+          ",
" ....+          ",
" ....+          ",
" +++++          ",
"   @    ....+   ",
"   @@@@@....+   ",
"   @    ....+   ",
"   @    ....+   ",
"   @    +++++   ",
"   @      @     ",
"   @....+ @....+",
"   @....+ @....+",
"    ....+  ....+",
"    ....+  ....+",
"    +++++  +++++"};
