/* XPM */
static const char* const undo_xpm[] = {
"16 16 7 1",
" 	c None",
".	c #000084",
"+	c #1A1A84",
"@	c #1E1E84",
"#	c #302F84",
"$	c #201F84",
"%	c #323184",
"                ",
"                ",
"                ",
"        ....+   ",
" .    ........@ ",
" .. ....     .# ",
" .....        . ",
" ....         . ",
" .....        . ",
" ......      .$ ",
"            ..% ",
"           +..  ",
"                ",
"                ",
"                ",
"                "};
