/* XPM */
static const char* const view_xpm[] = {
"16 16 5 1",
" 	c None",
".	c #FFFFFF",
"+	c #000000",
"@	c #5F5FFF",
"#	c #000093",
"................",
"................",
".+++++++++++++..",
".+...+...+...+..",
".+++++++++++++..",
".+...+@@@+...+..",
".+..+@@@@@+..+..",
".++++@@@@@++++..",
".+..+#@@@@+..+..",
".+...+#@@+...+..",
".+++++++++++++..",
".+...+...+++.+..",
".+...+...+++++..",
".+++++++++++++..",
"................",
"................"};
