/* XPM */
static const char* const writetablespace_xpm[] = {
"16 16 5 1",
" 	c None",
".	c #000000",
"+	c #7F7F7F",
"@	c #8E8E8E",
"#	c #FFFFFF",
"     ......  .. ",
"    .++++++..@@.",
"   .+++++++.#.@.",
"   ..+++...###. ",
"   .#...+.###.. ",
"  .......###.++.",
" .+++++.###.++..",
".+++++.###....#.",
"..++++..#.#####.",
".#........####..",
".####..##.....#.",
"..######..#####.",
".#......#.####. ",
".########.....  ",
" .######.       ",
"  ......        "};
